<svg xmlns="http://www.w3.org/2000/svg" width="206" height="198" viewBox="0 0 206 198" fill="none">
  <path d="M0.321298 156.462C0.515365 155.649 0.782207 154.849 0.867111 154.024C1.47357 148.105 3.77811 142.95 7.44111 138.498C9.04216 136.546 10.8494 134.738 12.7901 133.174C14.1364 132.094 16.1741 131.888 17.3749 130.687C19.0123 129.062 21.0015 128.71 22.8937 128.079C28.5701 126.199 34.4042 126.029 40.2262 127.097C43.3434 127.679 46.3878 128.734 49.4444 129.668C50.0508 129.85 50.5481 130.469 51.0697 130.869C51.3972 130.808 51.9551 130.517 52.2705 130.687C55.0238 132.228 57.8984 133.477 60.4819 135.405C62.9805 137.261 65.8794 138.511 68.5963 140.039C69.0572 140.306 69.4817 140.645 70.1367 141.082C71.6043 141.361 73.3873 141.676 74.9156 142.913C75.6676 141.701 75.1218 140.439 74.9277 139.093C74.6973 137.516 74.8792 135.866 74.8549 134.253C74.8549 133.768 74.9277 133.186 74.7094 132.822C73.3631 130.493 72.0046 128.176 70.5491 125.932C69.5545 124.392 68.1111 123.385 66.2796 123.676C63.7932 124.089 61.3067 124.598 58.893 125.314C56.9766 125.884 55.2664 125.508 53.6047 124.659C52.4039 124.04 51.7368 122.936 51.6883 121.493C51.664 120.838 51.6155 120.171 51.7004 119.516C51.9915 117.49 51.761 115.756 50.0023 114.422C49.1533 113.779 48.7045 112.76 49.3231 111.547C49.4444 111.317 49.2624 110.734 49.0441 110.54C47.9404 109.534 47.8069 108.381 48.2557 106.974C48.9835 104.658 48.7409 104.439 46.8245 102.984C45.7814 102.183 44.8474 101.722 43.5375 101.722C42.7855 101.722 42.3367 100.849 42.7127 99.9999C43.1615 98.981 43.683 97.9863 44.2895 97.0645C45.7086 94.9055 47.3339 92.8799 48.6075 90.6238C49.4565 89.1319 49.9417 87.3732 50.3541 85.6629C50.5481 84.8745 50.2085 83.9163 50.0508 83.0551C49.8568 81.9634 49.6506 80.8718 49.3231 79.8287C49.1411 79.2222 48.6681 78.7249 48.4376 78.1306C48.1102 77.3058 47.625 76.4204 47.6614 75.5834C47.9646 69.264 49.5293 63.26 52.2341 57.6198C53.9564 54.0416 55.8607 50.5726 57.7043 47.0551C57.9348 46.6185 58.2259 46.2182 58.6383 45.5632C58.9658 48.6198 59.269 51.3853 59.5722 54.2357C68.475 44.5079 79.2942 43.2586 90.6471 45.0538C91.8721 43.3435 92.8789 41.6333 94.1646 40.2141C96.3599 37.7761 99.4044 37.3152 102.376 37.0848C103.031 37.0363 104.05 37.9338 104.414 38.6616C105.069 39.9594 105.433 41.4392 105.796 42.8826C106.5 45.6966 105.542 48.3651 105.081 51.0821C105.008 51.4945 105.105 52.1373 105.36 52.3678C110.248 56.7222 113.232 62.2532 114.542 68.8274C114.566 68.9608 114.639 69.0821 114.845 69.6643C115.573 68.1239 116.191 66.8866 116.713 65.6009C116.798 65.3704 116.494 64.8004 116.227 64.6184C112.225 61.8165 111.558 57.8624 112.431 53.2047C112.892 50.7303 113.135 48.1832 113.244 45.6603C113.304 44.4352 112.916 43.1495 112.601 41.9487C112.164 40.3233 111.255 39.0861 109.86 38.1279C104.462 34.4042 98.9313 31.008 92.5514 29.5161C88.6094 28.5942 84.6674 28.4244 80.8953 30.2923C78.5058 31.4689 76.6258 33.2276 75.898 36.0174C75.5948 37.1939 75.6191 38.4069 76.5409 39.3044C77.3535 40.0929 78.3481 40.202 79.5853 39.729C78.2996 39.1832 77.5112 38.4433 78.0207 37.0242C78.4209 35.8961 79.8643 35.1077 81.1136 35.3018C82.2295 35.4716 83.2119 36.5632 83.2968 37.8126C83.4666 40.1778 82.3993 41.888 80.5556 43.0646C78.5907 44.3018 76.6015 44.047 74.7579 42.7613C71.8105 40.6993 70.8645 36.7209 72.4049 32.6576C74.297 27.6603 77.4627 23.8031 82.181 21.6077C85.189 20.2128 88.3062 19.0605 91.3506 17.7748C92.0783 17.4594 92.7697 17.0349 93.4853 16.6589L93.4368 16.6953C94.5284 16.6347 95.6322 16.574 96.8572 16.5134C96.3357 15.5066 94.3465 15.2155 95.5715 13.6872C96.1295 12.9958 97.2696 12.4258 97.9246 13.3476C98.4098 14.039 98.2763 15.2155 98.434 16.2586C99.2709 16.1131 98.9677 15.0093 99.1618 14.2088C100.544 13.8085 101.927 13.4083 103.395 12.9837C104.026 14.318 102.873 15.1549 102.085 16.4406C109.435 16.8894 115.997 19.2667 121.649 23.233C122.741 22.3112 123.748 21.5592 124.645 20.6859C125.494 19.8368 126.355 18.9514 126.974 17.9204C127.799 16.5376 128.757 15.8462 130.115 16.1131C131.668 16.4285 132.092 17.3382 131.801 18.9514C131.522 20.5524 131.547 22.2021 131.413 23.8274C131.377 24.3247 131.413 24.9433 131.146 25.2829C130.2 26.5322 130.2 27.8543 130.685 29.3341C130.346 29.5767 130.03 29.795 129.509 30.171C131.353 30.6077 133.014 30.9958 134.858 31.4325C134.821 33.4581 135.27 35.6292 136.896 37.3759C135.804 38.3341 136.277 39.1468 136.823 40.1171C142.463 50.0632 145.18 60.7977 144.452 72.4176C144.44 72.6966 144.331 73.0483 144.44 73.2545C145.859 75.7653 144.222 78.2882 144.391 80.8354C144.464 81.9634 143.348 83.3219 143.955 84.8017C143.166 85.2262 142.475 85.6023 141.771 85.9783C141.796 86.039 141.808 86.0996 141.832 86.1602C142.245 86.051 142.657 85.8448 143.069 85.857C143.724 85.857 144.391 85.9783 145.046 86.0874C145.823 86.2087 146.587 86.3786 147.181 86.4877C147.727 87.822 148.273 89.1805 148.831 90.5268C148.928 90.733 149.025 90.9392 149.122 91.1575C149.486 92.4796 148.564 93.0255 147.739 93.5349C146.938 94.0322 146.296 93.7775 145.641 93.0133C145.325 92.6373 144.452 92.5039 143.93 92.6373C141.844 93.1953 141.65 93.1225 140.91 90.9756C140.777 90.5875 140.486 90.272 140.134 89.7141C138.933 91.8731 137.89 93.7775 136.835 95.6818C136.908 95.7788 136.968 95.888 137.041 95.985C138.776 94.6629 140.716 94.4809 142.463 95.4028C143.518 95.9607 144.501 97.1616 145.01 98.3139C146.502 101.734 144.573 105.155 140.134 107.411C140.959 107.799 141.832 108.139 142.633 108.612C144.488 109.74 145.143 111.644 144.513 113.803C143.312 117.927 139.807 119.504 136.908 117.187C136.374 116.763 135.925 116.083 135.683 115.416C135.282 114.361 136.034 112.772 136.92 112.457C137.854 112.129 138.885 112.942 139.334 114.397C139.006 114.531 138.666 114.676 138.181 114.883C138.436 115.077 138.618 115.283 138.666 115.259C139.03 115.028 139.697 114.652 139.661 114.494C139.503 113.852 139.261 113.087 138.8 112.699C138.169 112.166 137.332 111.753 136.532 111.571C133.512 110.892 130.54 111.292 127.204 112.069C130.273 115.004 131.086 118.715 131.559 122.694C131.886 122.524 132.117 122.439 132.323 122.306C134.652 120.741 137.417 121.214 139.115 123.519C139.321 123.798 139.479 124.344 139.358 124.635C137.939 128.079 138.06 131.694 138.121 135.321C138.133 136.121 137.842 137.055 137.405 137.722C136.022 139.857 136.059 142.016 136.993 144.236C136.447 144.721 135.949 145.157 135.44 145.606C135.573 145.752 135.634 145.873 135.683 145.873C137.114 145.837 138.327 146.395 139.637 147.013C140.874 147.595 142.475 147.317 144.076 147.438C144.028 151.174 144.731 154.934 147.533 157.905C146.599 159.749 145.41 161.156 143.579 161.799C142.208 162.272 141.201 161.932 140.534 160.586C139.831 159.167 138.812 158.985 137.514 159.361C136.277 159.713 135.016 159.992 133.766 160.356C133.512 160.428 133.233 160.659 133.087 160.901C131.741 163.121 130.54 165.462 129.048 167.56C127.774 169.331 126.319 171.054 124.657 172.4C123.202 173.564 122.668 174.947 122.462 176.682C122.304 178.04 121.006 179.629 119.745 179.568C118.835 179.52 117.974 178.816 117.077 178.404C116.931 178.331 116.773 178.283 116.579 178.198C116.931 179.835 117.622 180.49 119.005 180.551C121.552 180.672 123.42 179.144 125.409 177.773C128.017 175.966 129.351 173.079 131.231 170.641C131.801 169.901 132.311 169.113 133.063 168.373C132.857 169.016 132.699 169.683 132.432 170.289C130.649 174.207 128.842 178.125 125.652 181.012C124.087 182.431 122.425 183.947 120.266 184.275C117.501 184.687 114.444 183.62 113.195 179.447C109.811 180.369 106.67 182.213 102.873 182.54C102.898 182.94 103.067 183.62 102.958 184.25C102.873 184.723 102.509 185.33 102.121 185.512C100.811 186.106 98.9556 185.621 99.1132 183.535C99.1375 183.171 99.1132 182.807 99.1132 182.443C98.992 182.407 98.8707 182.37 98.7494 182.334C98.6159 182.783 98.2642 183.341 98.3976 183.668C98.9677 185.063 98.1065 185.391 97.1847 185.754C96.8208 185.9 96.4933 186.143 96.1537 186.349L96.2023 186.3C95.5958 186.458 95.0015 186.616 94.395 186.749C92.4907 187.198 91.6538 186.276 92.1632 184.323C92.4463 183.248 92.2765 182.265 91.6538 181.376C90.6835 182.043 89.8344 181.982 88.7913 181.279C88.1364 180.842 87.0326 181.194 86.1957 180.951C84.3157 180.405 82.5933 180.891 80.9195 181.655C80.495 181.849 80.2403 182.467 79.9128 182.88C79.5489 183.341 79.1729 183.79 78.8818 184.529C79.2336 184.396 79.5974 184.299 79.9128 184.117C80.3494 183.85 80.7012 183.438 81.1621 183.232C82.2537 182.722 83.6971 183.28 84.2429 184.602C84.6674 185.621 84.5098 186.664 83.5394 187.477C81.8171 188.932 79.2821 188.775 77.7659 187.028C76.4681 185.524 76.6622 182.831 78.2511 181.327C78.8212 180.794 79.5368 180.418 80.4707 179.775C78.7727 179.168 77.4385 178.695 75.7768 178.089C75.4371 179.083 75.1824 180.126 74.7215 181.048C74.2606 181.958 73.6056 182.771 72.9871 183.595C72.696 183.971 72.2957 184.25 71.9561 184.578C71.3617 185.148 70.8159 185.609 70.0033 184.833C69.7243 184.566 69.1179 184.469 68.7297 184.578C67.8443 184.808 67.3713 184.639 66.9346 183.705C66.6314 183.062 65.8794 182.637 65.1759 181.982C65.6004 181.606 66.1462 181.121 66.7527 180.587C66.2554 180.648 65.746 180.866 65.3821 180.721C64.9818 180.551 64.436 180.066 64.4117 179.678C64.3026 178.234 64.3632 176.767 64.3632 175.105C61.1975 175.36 58.3108 175.736 55.7879 177.494C54.2475 178.574 53.7745 180.223 54.3931 181.643C55.0238 183.074 56.358 183.632 58.2259 183.244C57.0493 185.257 53.3863 186.082 51.3365 184.602C49.9781 183.62 48.9471 182.431 48.3042 180.563C46.6789 175.881 49.0198 172.861 51.6761 169.913C52.7071 168.773 54.1262 168.021 55.5696 166.93C53.6047 165.426 51.8459 163.861 49.8931 162.636C46.3272 160.404 42.6642 158.342 39.0254 156.256C37.7882 155.54 36.5632 156.316 36.7694 157.784C36.9635 159.179 37.3637 160.61 37.9823 161.86C38.5403 163.012 39.6198 163.449 40.8084 162.563C41.5119 163.982 41.1359 165.232 39.7653 165.741C37.8246 166.457 35.9082 166.068 34.2951 164.843C31.1657 162.454 30.2803 159.422 31.287 155.419C31.3962 154.97 31.4932 154.533 31.6266 153.951C27.8181 152.714 24.143 153.066 20.5163 154.388C19.3883 154.8 18.1269 155.116 17.2415 155.88C16.2469 156.729 15.5555 158.002 14.8399 159.167C12.4262 163.024 11.5893 167.16 13.1661 171.599C13.5299 172.63 14.1485 173.601 14.8156 174.45C15.7496 175.626 17.4598 175.869 18.9274 175.226C19.4005 175.02 19.8614 174.777 20.3829 174.523C20.0312 177.276 16.6229 179.908 13.3844 179.156C10.6311 178.513 8.29015 177.118 6.57994 174.608C5.50045 173.019 4.05708 171.684 3.09888 170.035C1.25524 166.893 0.612398 163.327 0.430461 159.664C0.406202 159.155 0.333429 158.645 0.284912 158.136C0.284912 157.566 0.284912 157.008 0.284912 156.438L0.321298 156.462ZM135.707 100.206C135.125 103.093 132.735 104.912 132.068 107.775C134.3 106.574 136.459 105.288 138.521 103.857C139.188 103.396 139.71 102.583 140.098 101.819C140.656 100.703 140.364 99.8664 139.685 99.4662C139.758 99.9513 140.158 100.812 139.904 101.225C139.528 101.831 138.727 102.414 138.048 102.499C136.665 102.68 136.289 101.395 135.707 100.194V100.206ZM69.6758 176.718C69.6273 176.391 69.5788 176.051 69.4817 175.408C69.1664 176.949 68.9117 178.198 68.6084 179.629C68.4022 179.763 68.002 180.017 67.7836 180.163C68.8389 180.272 70.0275 180.405 71.1313 180.515C71.289 181.303 71.4103 181.946 71.4709 182.237C71.7256 181.024 72.0289 179.593 72.32 178.234C73.0234 178.077 73.5693 177.955 73.8967 177.882C72.5868 177.519 71.2041 177.131 69.6879 176.706L69.6758 176.718Z" fill="url(#paint0_linear_973_3466)"/>
  <path d="M205.025 132.883C204.37 134.18 203.897 135.648 203.012 136.752C200.622 139.724 195.528 140.742 191.998 138.535C190.264 137.455 188.214 136.897 186.577 135.697C184.381 134.095 182.416 132.131 180.391 130.287C179.59 129.559 178.887 128.734 178.135 127.958C178.22 127.873 178.305 127.788 178.389 127.703C181.446 129.571 184.478 131.463 187.547 133.283C190.676 135.139 194.145 135.466 197.905 135.224C198.851 134.229 201.18 133.622 200.574 130.99C200.38 130.129 200.052 129.292 199.785 128.443C199.628 128.492 199.47 128.552 199.312 128.601C199.409 128.94 199.482 129.292 199.591 129.632C199.955 130.772 199.979 131.936 199.07 132.761C198.002 133.732 196.789 134.617 195.261 133.877C193.114 132.834 190.992 129.947 192.023 127.582C193.211 124.865 197.529 122.609 200.816 125.241C203.169 127.121 204.055 129.486 205.025 132.046V132.895V132.883Z" fill="url(#paint1_linear_973_3466)"/>
  <path d="M120.182 0.187195C120.752 0.538947 121.31 0.939223 121.916 1.2182C124.33 2.34623 125.3 4.65081 126.186 7.01604C126.877 8.8597 127.532 10.7155 128.163 12.5834C128.332 13.105 128.369 13.6751 128.332 14.2694C127.69 12.7411 127.132 11.1764 126.404 9.69665C125.082 7.01606 123.614 4.42038 120.679 3.32873C118.775 2.6131 117.416 3.71684 117.562 5.87587C117.998 5.37857 118.338 4.71146 118.872 4.44462C119.769 3.99583 120.897 4.27482 121.346 5.06323C121.783 5.82738 122.001 7.1616 121.649 7.90149C121.273 8.6899 120.169 9.46619 119.308 9.57535C117.004 9.8422 114.554 6.03355 115.56 3.82601C116.276 2.27345 117.052 0.599596 119.054 0.417656C119.163 0.417656 119.272 0.259971 119.381 0.187195C119.648 0.187195 119.915 0.187195 120.182 0.187195Z" fill="url(#paint2_linear_973_3466)"/>
  <path d="M180.16 62.9203C177.116 64.388 174.229 66.0861 170.857 66.3165C168.88 66.4621 167.607 64.8367 168.007 62.7868C168.092 62.3745 168.165 61.9499 168.322 61.5739C169.038 59.9243 168.989 58.3112 168.177 56.698C167.97 56.2856 167.837 55.8246 167.704 55.388C166.976 53.1076 167.473 51.8098 169.438 50.5484C170.687 49.7478 171.961 48.9594 173.053 47.9527C173.72 47.3341 174.132 46.3637 174.52 45.4904C176.036 42.0699 179.772 41.5362 182.028 44.4958C182.21 44.7384 182.344 45.2114 182.234 45.4661C180.997 48.5106 181.058 51.6885 181.143 54.8907C181.167 55.5699 180.924 56.3704 180.548 56.9284C179.275 58.8206 179.384 60.7856 180.148 62.9203H180.16Z" fill="url(#paint3_linear_973_3466)"/>
  <path d="M146.72 131.063C146.902 126.575 146.902 122.027 148.527 117.709C148.758 117.078 149.195 116.459 149.68 116.023C150.856 114.98 151.936 115.174 152.615 116.617C153.428 118.352 154.531 118.994 156.375 118.582C157.867 118.242 158.764 118.873 159.262 120.401C159.832 122.148 160.729 123.312 162.464 124.016C165.169 125.12 165.545 129.498 163.204 131.245C160.826 133.016 158.194 134.083 155.235 133.974C154.859 133.962 154.301 133.756 154.155 133.465C152.821 130.808 150.626 130.614 148.188 131.015C147.836 131.075 147.484 131.148 147.133 131.197C147.06 131.197 146.963 131.136 146.732 131.051L146.72 131.063Z" fill="url(#paint4_linear_973_3466)"/>
  <path d="M161.615 99.6117C161.882 101.176 162.694 101.916 164.186 102.05C165.569 102.171 166.709 102.207 167.692 100.897C169.838 98.0349 170.214 94.675 170.202 91.2546C170.19 88.6346 170.057 85.9783 169.584 83.419C169.086 80.7384 168.128 78.1548 167.376 75.5227C167.255 75.1103 167.17 74.698 167.073 74.2734C167.206 74.2128 167.34 74.1643 167.485 74.1036C168.189 75.6319 169.062 77.0875 169.584 78.6885C170.869 82.667 172.204 86.6454 173.113 90.7209C173.987 94.6872 174.096 98.7869 172.24 102.559C170.942 105.191 168.686 106.829 165.921 107.29C163.847 107.641 162.112 106.574 160.608 105.009C159.092 103.432 158.255 101.504 157.685 99.4176C156.727 95.8394 159.322 91.7033 162.816 91.388C163.725 91.3031 164.793 91.8246 165.63 92.3583C168.528 94.1898 168.747 98.6049 166.139 100.715C165.338 101.37 163.64 101.225 162.622 100.424C162.282 100.158 161.954 99.8664 161.627 99.5874L161.615 99.6117Z" fill="url(#paint5_linear_973_3466)"/>
  <path d="M138.097 189.709C138.545 191.625 140.947 192.814 142.912 192.098C144.222 191.625 144.95 190.533 145.617 189.393C147.193 186.737 147.557 183.729 147.715 180.696C147.945 176.391 147.242 172.157 146.417 167.961C146.296 167.366 146.211 166.76 146.126 166.166C146.126 166.105 146.211 166.032 146.344 165.85C146.878 167.184 147.485 168.422 147.873 169.732C148.613 172.206 149.34 174.68 149.85 177.215C150.577 180.794 150.929 184.396 150.359 188.071C149.898 191.055 148.77 193.578 146.296 195.24C145.362 195.87 144.379 196.574 143.336 196.853C140.268 197.653 137.672 196.186 135.889 193.347C134.652 191.358 134.106 189.357 134.409 187.04C134.7 184.857 136.18 183.183 138.169 182.637C138.849 182.455 139.479 181.885 140.146 181.861C141.796 181.8 143.045 182.843 143.797 184.214C144.84 186.094 145.228 188.156 143.797 190.121C143.033 191.164 141.578 191.382 140.486 190.728C139.734 190.279 138.885 190.036 138.097 189.709Z" fill="url(#paint6_linear_973_3466)"/>
  <path d="M182.016 55.9096C181.919 52.0888 182.149 48.4864 183.144 45.0053C183.411 44.0713 183.981 43.1252 184.648 42.4338C185.497 41.5484 186.528 41.7546 187.05 42.9069C187.777 44.5322 188.869 45.0538 190.482 44.7748C191.841 44.5322 192.69 45.2357 193.078 46.5942C193.478 47.977 194.218 48.8746 195.588 49.4204C198.148 50.4392 198.609 54.2236 196.425 55.9096C194.363 57.4864 192.047 58.4204 189.451 58.3112C189.087 58.2991 188.59 58.0565 188.384 57.7532C187.013 55.764 185.594 55.1454 183.338 55.6549C182.95 55.7398 182.55 55.8004 182.016 55.8975V55.9096Z" fill="url(#paint7_linear_973_3466)"/>
  <path d="M186.431 65.7464C186.334 69.0213 187.074 72.2478 189.427 74.8071C188.687 76.4203 187.668 77.5362 186.189 78.1669C185 78.6642 183.945 78.4944 183.326 77.233C182.647 75.8623 181.689 75.6561 180.427 76.1534C179.93 76.3475 179.408 76.5052 178.899 76.6628C176.776 77.33 175.454 76.6265 175.102 74.2855C174.799 72.2721 173.829 71.423 172.034 71.2895C171.731 71.2653 171.427 71.1562 171.136 71.0349C169.887 70.5497 169.644 69.7855 170.627 68.8758C171.646 67.9297 172.81 67.0928 174.023 66.4378C175.321 65.7343 176.728 65.2491 178.123 64.7639C179.505 64.2909 180.767 64.012 182.247 65.0551C183.253 65.7586 184.854 65.516 186.431 65.7343V65.7464Z" fill="url(#paint8_linear_973_3466)"/>
  <path d="M161.797 25.95C162.015 24.0821 160.827 23.6212 159.686 23.3058C158.898 23.0875 158.001 23.2209 157.164 23.233C156.957 23.233 156.678 23.3422 156.569 23.4999C155.817 24.64 154.823 25.7196 154.447 27.0053C153.1 31.578 152.664 36.2721 153.416 41.039C153.695 42.7856 153.889 44.5322 154.119 46.291C153.986 46.3274 153.864 46.3637 153.731 46.4001C153.04 44.0228 152.227 41.6697 151.693 39.2559C150.784 35.1684 150.444 31.0322 151.026 26.8233C151.39 24.1913 152.761 22.1778 154.447 20.5282C156.994 18.0417 160.305 18.5026 162.889 21.0619C165.327 23.4635 165.969 26.8354 164.526 29.6737C163.447 31.7964 160.863 33.1064 158.777 32.1724C156.315 31.0686 155.223 27.357 156.897 25.2223C158.11 23.6697 159.82 23.6454 161.166 25.0888C161.409 25.3435 161.579 25.671 161.785 25.9621L161.797 25.95Z" fill="url(#paint9_linear_973_3466)"/>
  <path d="M154.968 134.993C156.933 134.653 158.776 134.508 160.511 133.986C162.233 133.477 163.859 132.591 165.545 131.864C166.563 133.416 165.848 137.067 164.162 138.256C162.791 139.226 162.609 140.488 162.767 142.04C162.985 144.175 162.658 145.994 160.402 146.953C159.735 147.244 159.274 148.335 158.934 149.16C158.376 150.531 157.891 152.059 156.229 152.023C154.616 151.986 154.01 150.434 153.743 149.1C153.27 146.783 153.088 144.405 152.882 142.04C152.833 141.543 153.052 140.827 153.391 140.524C154.871 139.214 155.101 137.528 154.968 135.684C154.956 135.466 154.968 135.236 154.968 135.005V134.993Z" fill="url(#paint10_linear_973_3466)"/>
  <path d="M168.419 43.6225C165.63 46.1697 162.779 48.3772 160.378 51.2398C158.595 53.3624 157.661 55.7034 157.091 58.384C156.787 59.8031 157.406 60.6522 158.255 61.4163C159.213 62.2897 160.547 62.326 161.663 61.6831C160.826 61.4406 159.856 61.3678 159.116 60.8947C158.146 60.2761 157.649 59.1117 158.134 57.9594C158.692 56.6737 159.589 55.5699 161.069 55.4122C162.209 55.291 163.374 55.2546 164.332 56.1036C164.538 56.2856 164.732 56.4797 164.89 56.698C166.454 59.0026 165.848 62.0834 163.556 63.5632C162.804 64.0484 162.124 64.7397 161.312 65.0187C159.056 65.8071 156.824 65.5403 155.199 63.5996C153.634 61.7196 153.112 59.3058 153.852 56.9284C155.102 52.95 157.843 50.1845 161.178 48.0376C162.937 46.9096 164.623 45.6724 166.369 44.5443C166.988 44.1441 167.728 43.9257 168.407 43.6225H168.419Z" fill="url(#paint11_linear_973_3466)"/>
  <path d="M198.378 56.3098C199.336 58.0443 198.948 60.64 197.396 61.9621C196.243 62.9445 195.916 63.9756 196.11 65.4918C196.328 67.299 195.964 68.9243 194.024 69.7127C193.502 69.9311 193.15 70.7073 192.823 71.2896C192.532 71.8111 192.423 72.4297 192.144 72.9634C191.307 74.5524 189.633 74.6373 188.76 73.0847C187.304 70.5133 187.171 67.6629 187.425 64.7761C187.45 64.5578 187.535 64.2788 187.692 64.1454C189.269 62.8476 189.354 61.0403 189.16 59.0025C192.508 58.954 195.625 58.2505 198.39 56.2977L198.378 56.3098Z" fill="url(#paint12_linear_973_3466)"/>
  <path d="M166.503 159.725C166.539 160.416 166.527 160.731 166.576 161.047C166.733 162.126 166.746 163.157 165.666 163.727C164.114 164.54 163.18 164.358 162.027 163.121C160.608 161.593 160.244 159.81 161.105 158.463C162.173 156.777 164.599 156.001 166.321 156.705C168.82 157.736 170.275 159.798 170.603 162.417C171.027 165.777 167.498 169.101 163.64 168.567C160.548 168.143 157.843 166.626 155.368 164.722C153.804 163.521 152.397 162.102 150.941 160.756C150.59 160.428 150.311 160.028 150.007 159.652C150.104 159.531 150.189 159.397 150.286 159.276C151.608 160.222 152.894 161.229 154.265 162.09C157.479 164.091 160.827 165.62 164.708 165.147C167.219 164.843 168.237 162.284 166.527 159.725H166.503Z" fill="url(#paint13_linear_973_3466)"/>
  <path d="M180.718 147.717C182.513 145.315 181.422 142.974 179.008 142.61C176.133 142.174 173.429 142.998 170.918 144.418C169.135 145.424 167.449 146.637 165.714 147.753C165.411 147.947 165.059 148.081 164.429 148.384C166.6 145.012 174.399 138.523 179.614 139.287C178.875 139.384 178.486 139.432 178.086 139.481C178.086 139.529 178.086 139.59 178.086 139.639C179.02 139.639 180.015 139.396 180.852 139.687C182.841 140.379 184.405 141.785 184.769 144.066C185.121 146.273 184.236 148.093 182.695 149.658C180.961 151.416 179.105 151.95 176.885 150.822C174.993 149.852 174.666 148.105 175.503 146.031C175.939 144.963 176.449 144.296 177.346 143.872C179.335 142.95 181.118 144.381 180.839 146.649C180.791 147.001 180.742 147.353 180.694 147.717H180.718Z" fill="url(#paint14_linear_973_3466)"/>
  <path d="M196.037 92.6494C197.262 89.3866 195.989 87.9553 193.551 87.6157C191.186 87.2882 189.221 88.4162 187.365 89.6534C185.594 90.8421 183.993 92.3098 182.319 93.6682C181.373 94.4324 180.451 95.2208 179.311 95.8637C180.609 94.1777 181.871 92.4553 183.241 90.83C184.224 89.6656 185.291 88.5497 186.443 87.5672C188.905 85.4688 191.525 83.7464 194.934 84.3529C198.136 84.9351 199.931 87.7249 199.239 91.109C198.5 94.7963 196.377 96.6035 193.26 96.1547C191.853 95.9485 190.701 95.2208 190.203 93.7653C189.694 92.237 190.288 90.7936 191.246 89.7626C192.12 88.8287 193.417 88.3192 194.74 88.9499C195.892 89.5078 195.892 90.6845 195.88 91.8125C195.88 91.9823 195.94 92.1642 196.037 92.6494Z" fill="url(#paint15_linear_973_3466)"/>
  <path d="M184.26 116.144C182.38 116.823 180.548 117.672 178.632 118.133C176.849 118.57 175.769 117.187 176.424 115.356C176.946 113.9 176.764 112.663 176.218 111.304C175.466 109.449 175.781 108.587 177.516 107.629C178.947 106.841 180.027 105.846 180.718 104.221C181.579 102.171 183.932 101.916 185.364 103.614C185.582 103.881 185.57 104.439 185.533 104.839C185.376 106.319 185.085 107.799 184.988 109.279C184.903 110.431 184.951 111.511 184.333 112.626C183.872 113.451 184.041 114.652 183.92 115.683C184.041 115.841 184.163 115.986 184.272 116.144H184.26Z" fill="url(#paint16_linear_973_3466)"/>
  <path d="M139.455 19.6185C139.758 17.1441 140.001 14.8759 140.34 12.6198C140.425 12.0497 140.728 11.4433 141.092 11.0066C141.699 10.2546 142.463 10.012 143.009 11.1037C143.494 12.0619 144.149 12.45 145.18 12.2681C146.114 12.0983 146.587 12.632 147.023 13.4931C147.387 14.2088 148.006 14.9002 148.673 15.3125C150.407 16.3678 150.686 18.6481 149 19.7155C147.994 20.3462 146.829 20.7101 145.689 21.0861C144.804 21.3772 144.04 21.2923 143.409 20.2735C142.778 19.2667 141.917 19.2304 139.455 19.6185Z" fill="url(#paint17_linear_973_3466)"/>
  <path d="M185.242 111.304C185.631 108.66 185.91 106.21 186.407 103.808C186.54 103.166 187.268 102.547 187.874 102.207C188.069 102.098 188.711 102.935 189.197 103.251C189.694 103.566 190.276 104.027 190.773 103.966C191.913 103.821 192.471 104.294 192.944 105.325C193.248 105.967 193.83 106.586 194.424 106.938C195.395 107.508 195.807 108.284 195.952 109.388C196.086 110.467 195.552 111.11 194.764 111.523C193.781 112.032 192.75 112.493 191.695 112.796C190.798 113.063 189.985 113.027 189.281 111.972C188.408 110.662 186.953 111.135 185.255 111.304H185.242Z" fill="url(#paint18_linear_973_3466)"/>
  <path d="M170.748 179.253C171.294 176.985 173.368 177.191 174.92 176.403C174.969 176.585 175.078 176.791 175.03 176.9C174.083 179.023 174.059 181.703 171.67 182.94C171.451 183.05 171.403 183.486 171.209 183.705C170.639 184.335 170.093 184.93 169.195 184.044C168.904 183.765 168.261 183.899 167.776 183.814C167.34 183.741 166.77 183.765 166.491 183.498C165.811 182.831 165.278 182.006 164.55 181.097C164.817 180.854 165.338 180.393 165.969 179.811C165.557 179.896 165.266 179.969 164.962 180.005C163.907 180.114 163.531 179.593 163.628 178.513C163.701 177.713 163.701 176.851 163.495 176.075C163.252 175.19 163.495 174.692 164.138 174.159C164.841 173.564 165.52 172.897 166.078 172.157C166.612 171.454 167.17 171.066 168.019 171.369C168.904 171.684 168.819 172.291 168.662 173.152C168.346 174.899 168.274 176.694 168.019 178.465C167.97 178.792 167.558 179.059 167.34 179.314C168.261 179.471 169.256 179.641 170.323 179.823C170.408 180.223 170.493 180.66 170.578 181.109C170.639 181.109 170.699 181.109 170.76 181.109V179.229L170.724 179.277L170.748 179.253Z" fill="url(#paint19_linear_973_3466)"/>
  <path d="M189.427 122.075C189.475 122.257 189.5 122.439 189.572 122.609C189.791 123.131 190.349 123.895 190.179 124.137C189.694 124.877 189.027 125.617 188.262 125.957C187.789 126.163 186.771 125.86 186.455 125.423C185.849 124.586 185.242 124.465 184.393 124.719C181.713 125.484 181.773 125.435 180.755 122.803C180.536 122.233 179.663 121.93 179.081 121.53C178.644 121.238 178.183 121.02 177.734 120.765C178.025 120.28 178.22 119.564 178.632 119.358C180.463 118.449 182.356 117.672 184.236 116.884C184.418 116.799 184.684 116.823 184.891 116.884C185.994 117.236 187.086 117.612 188.165 117.988C188.554 119.213 189.014 120.668 189.475 122.124L189.439 122.087L189.427 122.075Z" fill="url(#paint20_linear_973_3466)"/>
  <path d="M149.934 131.803C150.638 132.094 151.693 132.264 152.372 132.895C153.112 133.574 153.755 134.605 154.01 135.612C154.701 138.28 152.324 141.07 149.813 141.167C148.831 141.203 147.569 140.767 146.878 140.051C146.053 139.202 145.386 137.892 145.216 136.691C144.828 133.974 146.987 132.058 149.946 131.815L149.934 131.803Z" fill="url(#paint21_linear_973_3466)"/>
  <path d="M152.627 74.9769C152.882 73.2667 153.064 71.0713 153.573 68.9729C153.998 67.2505 154.895 67.1899 156.011 68.512C156.314 68.8637 156.921 69.1063 157.382 69.082C158.316 69.0335 158.837 69.3489 159.262 70.2586C159.541 70.8772 160.099 71.4352 160.656 71.799C162.33 72.8664 162.439 74.7586 160.766 75.8017C159.941 76.3112 158.983 76.6508 158.049 76.9176C157.321 77.1359 156.751 76.857 156.072 76.2505C155.308 75.5713 154.07 75.4621 152.627 74.9769Z" fill="url(#paint22_linear_973_3466)"/>
  <path d="M189.463 122.124C189.306 120.838 189.111 119.552 189.014 118.255C188.978 117.769 189.124 117.236 189.306 116.775C189.718 115.744 190.191 114.749 190.712 113.597C192.362 113.112 194.351 112.542 196.389 111.947C196.947 112.918 196.777 114.373 195.673 115.331C194.958 115.95 194.739 116.605 194.824 117.527C194.946 118.764 194.764 119.868 193.478 120.438C193.15 120.583 192.871 120.996 192.702 121.348C191.44 124.016 191.246 124.064 189.403 122.087L189.439 122.124H189.463Z" fill="url(#paint23_linear_973_3466)"/>
  <path d="M150.662 20.2128C151.014 21.4136 150.832 22.6508 149.801 23.6333C149.11 24.2883 148.831 24.9554 148.964 25.9743C149.11 27.0659 148.855 28.0484 147.763 28.7034C147.23 29.0309 146.999 29.8921 146.55 30.4258C146.138 30.9231 145.641 31.5902 145.131 31.663C144.755 31.7115 144.052 30.9837 143.882 30.45C143.215 28.388 142.439 26.3139 144.028 24.2276C144.464 23.6576 144.367 22.6508 144.501 21.9716C146.453 21.4137 148.479 20.8314 150.662 20.2128Z" fill="url(#paint24_linear_973_3466)"/>
  <path d="M103.88 181.121C105.869 180.054 107.798 181.291 109.581 181.267C110.114 183.013 110.636 184.723 111.158 186.422C111.315 186.47 111.473 186.531 111.643 186.579C110.976 187.125 110.357 187.756 109.617 188.156C109.314 188.326 108.538 188.108 108.344 187.804C107.725 186.87 107.022 186.907 106.136 187.21C104.511 187.768 104.183 187.477 103.553 185.839C103.334 185.269 102.655 184.881 102.146 184.469C101.782 184.178 101.345 183.984 100.945 183.741C101.248 183.316 101.491 182.807 101.879 182.492C102.522 181.958 103.249 181.546 103.941 181.072L103.892 181.121H103.88Z" fill="url(#paint25_linear_973_3466)"/>
  <path d="M188.384 60.5187C188.384 62.7505 186.625 64.5456 184.466 64.5335C182.441 64.5214 180.415 62.5807 180.561 60.5551C180.633 59.5484 181.034 58.3597 181.677 57.6683C182.356 56.9406 183.496 56.3584 184.466 56.3098C186.431 56.2128 188.42 58.0564 188.384 60.5187Z" fill="url(#paint26_linear_973_3466)"/>
  <path d="M101.187 11.4676C100.375 11.6738 99.5619 11.9528 98.7371 12.0741C97.4515 12.256 97.0027 11.601 97.1361 10.2425C97.2331 9.27216 97.1725 8.24117 96.9784 7.29508C96.748 6.17918 96.9663 5.47568 97.8881 4.79643C98.7614 4.15357 99.5255 3.29238 100.156 2.3948C100.872 1.38807 101.782 0.987793 102.788 1.55787C103.383 1.88537 103.698 2.26139 103.48 3.12257C103.213 4.18996 103.225 5.34224 103.079 6.44601C102.91 7.8045 102.788 9.17514 102.437 10.4851C102.315 10.9218 101.587 11.1886 101.139 11.5282L101.187 11.4918V11.4676Z" fill="url(#paint27_linear_973_3466)"/>
  <path d="M170.057 134.52C170.724 134.872 171.245 135.139 171.718 135.393C173.053 133.598 173.247 131.609 172.337 129.608C171.864 128.565 171.088 127.667 170.36 126.769C169.547 125.763 168.638 124.853 167.934 123.616C168.674 124.113 169.45 124.55 170.154 125.108C172.119 126.672 173.962 128.383 174.775 130.942C175.83 134.241 173.72 137.431 170.675 136.703C169.135 136.339 167.667 135.49 167.17 133.622C166.879 132.531 167.886 130.614 168.977 130.19C169.826 129.862 171.476 130.699 171.912 131.67C172.337 132.604 171.937 133.671 171.015 134.108C170.748 134.229 170.481 134.338 170.069 134.508L170.057 134.52Z" fill="url(#paint28_linear_973_3466)"/>
  <path d="M156.824 85.9419C156.727 85.7357 156.63 85.5295 156.533 85.3111C156.29 84.0861 155.999 82.861 155.817 81.6238C155.756 81.2478 155.914 80.799 156.06 80.423C156.411 79.5133 156.824 78.6158 157.273 77.5605C158.74 77.136 160.511 76.6387 162.391 76.0928C162.694 77.1238 162.452 78.1306 161.712 79.1252C161.312 79.6589 160.996 80.3745 160.96 81.0295C160.887 82.109 160.814 83.0308 159.723 83.5888C159.322 83.795 159.068 84.4378 158.861 84.9351C158.449 85.9661 157.867 86.4634 156.8 85.9419H156.824Z" fill="url(#paint29_linear_973_3466)"/>
  <path d="M111.497 177.87C113.232 177.373 114.893 176.9 116.64 176.403C116.931 177.482 116.725 178.489 115.839 179.423C115.488 179.799 115.281 180.454 115.257 181C115.209 182.079 115.148 183.001 114.056 183.583C113.632 183.814 113.498 184.602 113.147 185.063C112.856 185.427 112.419 185.912 112.055 185.9C111.691 185.9 111.145 185.415 111.024 185.015C110.49 183.256 109.702 181.497 111.121 179.714C111.461 179.277 111.388 178.477 111.497 177.87Z" fill="url(#paint30_linear_973_3466)"/>
  <path d="M103.395 7.07672C103.625 5.45139 103.722 3.81392 104.098 2.26136C104.45 0.805836 105.069 0.733054 106.051 1.80044C106.112 1.87322 106.184 1.99451 106.233 1.99451C108.004 1.80044 108.562 3.55919 109.702 4.37186C111.109 5.36647 111.182 6.79774 109.702 7.63466C108.428 8.3503 107.131 9.05381 105.748 7.57403C105.348 7.1495 104.426 7.27077 103.395 7.08883V7.07672Z" fill="url(#paint31_linear_973_3466)"/>
  <path d="M155.587 108.733C155.211 107.132 154.859 105.64 154.459 103.978C154.774 104.197 155.101 104.318 155.295 104.56C156.739 106.271 158.194 107.908 157.903 110.54C157.721 112.19 156.63 113.003 155.708 114.021C155.538 114.215 154.968 114.215 154.701 114.07C153.512 113.403 153.185 112.251 153.149 110.892C153.124 109.667 153.804 109.255 154.737 109.024C154.907 108.988 155.065 108.915 155.574 108.745L155.587 108.733Z" fill="url(#paint32_linear_973_3466)"/>
  <path d="M154.01 169.61C155.308 170.484 156.727 171.224 157.879 172.279C159.517 173.783 159.541 177.021 158.11 178.659C157.915 178.877 157.503 178.962 157.188 178.974C155.805 179.047 155.271 177.883 154.847 176.864C154.616 176.33 154.92 175.469 155.138 174.826C155.296 174.365 156.072 173.892 155.987 173.625C155.72 172.776 155.235 171.976 154.738 171.236C154.447 170.787 153.974 170.484 153.573 170.108C153.719 169.938 153.852 169.768 153.998 169.598L154.01 169.61Z" fill="url(#paint33_linear_973_3466)"/>
  <path d="M177.904 89.1683C176.655 85.5901 178.717 81.7816 182.089 81.4298C183.387 81.2964 183.92 81.7087 183.75 83.0308C183.653 83.8435 183.253 84.6926 182.78 85.3719C182.125 86.3179 181.361 85.8813 180.573 85.3719C180.354 85.2384 179.566 85.6751 179.347 86.039C178.777 87.0214 178.377 88.1009 177.904 89.1683Z" fill="url(#paint34_linear_973_3466)"/>
  <path d="M164.125 117.042C165.532 116.435 166.891 115.647 168.346 115.271C170.251 114.785 171.888 115.562 172.919 117.345C173.21 117.854 173.416 118.825 173.15 119.237C172.434 120.377 171.173 120.256 170.117 119.94C169.644 119.795 169.038 118.982 169.05 118.473C169.05 117.333 168.504 117.017 167.667 117.042C166.527 117.066 165.387 117.248 164.259 117.357C164.223 117.248 164.174 117.151 164.138 117.042H164.125Z" fill="url(#paint35_linear_973_3466)"/>
  <path d="M130.71 184.808C129.994 185.864 129.363 187.016 128.527 187.974C127.035 189.697 124.839 190.012 122.886 188.957C121.843 188.399 121.564 187.404 122.389 186.567C122.996 185.961 123.82 185.5 124.633 185.257C124.997 185.148 125.761 185.609 125.967 186.021C126.477 187.04 127.12 186.955 127.835 186.482C128.733 185.888 129.582 185.197 130.455 184.554C130.54 184.639 130.625 184.723 130.71 184.808Z" fill="url(#paint36_linear_973_3466)"/>
  <path d="M168.771 175.893C168.917 174.644 168.977 173.334 169.244 172.085C169.474 170.993 170.069 170.896 170.845 171.648C170.942 171.745 171.063 171.915 171.148 171.903C172.701 171.636 173.028 173.31 174.023 173.916C174.993 174.511 174.933 175.711 173.95 176.281C172.931 176.876 171.888 177.616 170.712 176.391C170.372 176.039 169.644 176.087 168.783 175.881L168.771 175.893Z" fill="url(#paint37_linear_973_3466)"/>
  <path d="M187.28 111.875C188.444 111.814 189.621 112.918 189.657 114.131C189.694 115.416 188.76 116.763 187.183 116.848C185.849 116.908 184.842 116.035 184.745 114.737C184.624 113.269 185.788 111.959 187.28 111.875Z" fill="url(#paint38_linear_973_3466)"/>
  <path d="M140.91 20.0309C142.596 20.0309 143.664 20.9891 143.748 22.2748C143.833 23.4029 143.591 24.2519 142.244 24.5915C140.182 25.1131 139.503 24.9918 138.873 23.3301C138.788 23.1239 138.666 22.7842 138.751 22.6629C139.515 21.6683 140.328 20.7223 140.898 20.0309H140.91Z" fill="url(#paint39_linear_973_3466)"/>
  <path d="M138.339 108.393C141.784 109.024 143.554 111.171 142.899 113.779C142.766 114.325 142.099 115.234 141.881 115.174C141.189 114.967 140.425 114.519 140.013 113.924C139.734 113.512 139.746 112.396 140.061 112.093C140.837 111.365 140.461 110.892 140.025 110.346C139.54 109.752 139.018 109.182 138.339 108.406V108.393Z" fill="url(#paint40_linear_973_3466)"/>
  <path d="M154.556 75.8503C154.786 76.4446 154.823 76.857 155.017 77.0026C155.344 77.233 156.096 77.233 156.132 77.4271C156.242 78.082 156.363 79.016 156.023 79.4284C155.562 79.9864 154.665 80.4594 153.986 80.423C153.367 80.3867 152.761 79.6588 152.215 79.1615C152.093 79.0524 152.13 78.6036 152.227 78.3732C152.482 77.7546 152.712 77.051 153.137 76.5901C153.525 76.1777 154.18 76.0322 154.544 75.8503H154.556Z" fill="url(#paint41_linear_973_3466)"/>
  <path d="M169.596 149.621C169.96 150.191 170.687 150.846 170.59 151.307C170.481 151.877 169.644 152.702 169.171 152.666C168.638 152.617 167.849 151.78 167.789 151.21C167.728 150.737 168.553 150.143 168.989 149.597C169.196 149.597 169.402 149.597 169.596 149.609V149.621Z" fill="url(#paint42_linear_973_3466)"/>
  <path d="M161.591 115.804C160.608 116.556 160.002 117.369 159.407 117.357C158.934 117.357 158.146 116.35 158.122 115.756C158.097 115.307 159.019 114.47 159.565 114.422C160.086 114.373 160.669 115.137 161.591 115.804Z" fill="url(#paint43_linear_973_3466)"/>
  <path d="M160.547 37.012C160.911 37.6185 161.591 38.2371 161.554 38.8071C161.518 39.3045 160.729 40.008 160.184 40.1292C159.25 40.3476 158.764 39.4864 158.886 38.6373C158.971 38.043 159.553 37.5457 159.917 36.9998C160.123 36.9998 160.341 36.9998 160.547 36.9998V37.012Z" fill="url(#paint44_linear_973_3466)"/>
  <path d="M142.887 157.93C142.839 156.838 143.542 156.353 144.367 156.498C144.78 156.571 145.289 157.36 145.374 157.893C145.495 158.682 145.083 159.337 144.161 159.337C143.336 159.337 142.887 158.839 142.9 157.93H142.887Z" fill="url(#paint45_linear_973_3466)"/>
  <path d="M170.784 179.217C170.396 179.168 170.008 179.108 169.62 179.083C168.795 179.047 168.262 178.622 168.565 177.773C168.747 177.252 169.377 176.9 169.814 176.476C170.214 176.949 170.736 177.373 170.978 177.919C171.124 178.259 170.845 178.792 170.76 179.253L170.797 179.205L170.784 179.217Z" fill="url(#paint46_linear_973_3466)"/>
  <path d="M133.124 3.43789C132.65 4.59018 132.299 5.43922 131.959 6.30041L131.425 6.37318C131.086 5.65755 130.734 4.94193 130.31 4.04436C131.328 3.82603 132.008 3.66834 133.136 3.42575L133.124 3.43789Z" fill="url(#paint47_linear_973_3466)"/>
  <path d="M143.421 94.9661C144.003 96.1669 144.379 97.4527 145.762 97.2707C146.441 97.1737 147.242 96.6036 147.618 95.9971C147.872 95.5847 147.472 94.7236 147.399 94.2384C148.079 94.6387 148.37 95.4877 147.812 96.5915C147.424 97.3557 146.902 98.1683 146.235 98.6292C144.173 100.06 142.014 101.334 139.782 102.547C140.461 99.6845 142.839 97.8651 143.421 94.9783V94.9661Z" fill="url(#paint48_linear_973_3466)"/>
  <path d="M77.3779 171.49C78.8941 171.915 80.2646 172.303 81.5867 172.667C81.2592 172.74 80.7134 172.861 80.0099 173.019C79.7188 174.365 79.4156 175.808 79.1609 177.021C79.1003 176.718 78.979 176.087 78.8213 175.299C77.7175 175.178 76.5289 175.056 75.4736 174.947C75.692 174.802 76.0922 174.547 76.2984 174.414C76.5895 172.982 76.8442 171.733 77.1717 170.193C77.2687 170.823 77.3173 171.175 77.3658 171.502L77.3779 171.49ZM78.7121 174.632C78.9547 174.256 79.355 173.904 79.4156 173.504C79.5126 172.764 79.1851 172.242 78.3482 172.279C77.6933 172.303 77.0868 172.303 77.0504 173.261C77.014 174.341 77.6933 174.413 78.7242 174.632H78.7121Z" fill="url(#paint49_linear_973_3466)"/>
  <path d="M78.7121 174.632C77.6811 174.426 77.0019 174.341 77.0383 173.261C77.0746 172.315 77.6811 172.315 78.3361 172.279C79.173 172.242 79.5005 172.764 79.4034 173.504C79.3549 173.904 78.9425 174.256 78.6999 174.632H78.7121Z" fill="url(#paint50_linear_973_3466)"/>
  <defs>
    <linearGradient id="paint0_linear_973_3466" x1="0.3213" y1="100.691" x2="149.195" y2="100.691" gradientUnits="userSpaceOnUse">
      <stop offset="0.03" stop-color="#1F2953"/>
      <stop offset="0.736" stop-color="#1B8F8E"/>
      <stop offset="0.791" stop-color="#1D8588"/>
      <stop offset="0.871" stop-color="#1D6777"/>
      <stop offset="0.94" stop-color="#1D385C"/>
      <stop offset="1" stop-color="#1E2A54"/>
    </linearGradient>
    <linearGradient id="paint1_linear_973_3466" x1="178.135" y1="131.888" x2="205.025" y2="131.888" gradientUnits="userSpaceOnUse">
      <stop offset="0.03" stop-color="#1F2953"/>
      <stop offset="0.51" stop-color="#1D908F"/>
      <stop offset="0.59" stop-color="#1D8588"/>
      <stop offset="0.74" stop-color="#1D6777"/>
      <stop offset="0.94" stop-color="#1D385C"/>
      <stop offset="1" stop-color="#1E2A54"/>
    </linearGradient>
    <linearGradient id="paint2_linear_973_3466" x1="115.318" y1="7.23437" x2="128.345" y2="7.23437" gradientUnits="userSpaceOnUse">
      <stop offset="0.03" stop-color="#1F2953"/>
      <stop offset="0.51" stop-color="#1D908F"/>
      <stop offset="0.59" stop-color="#1D8588"/>
      <stop offset="0.74" stop-color="#1D6777"/>
      <stop offset="0.94" stop-color="#1D385C"/>
      <stop offset="1" stop-color="#1E2A54"/>
    </linearGradient>
    <linearGradient id="paint3_linear_973_3466" x1="167.388" y1="54.4419" x2="182.283" y2="54.4419" gradientUnits="userSpaceOnUse">
      <stop offset="0.03" stop-color="#1F2953"/>
      <stop offset="0.51" stop-color="#1D908F"/>
      <stop offset="0.59" stop-color="#1D8588"/>
      <stop offset="0.74" stop-color="#1D6777"/>
      <stop offset="0.94" stop-color="#1D385C"/>
      <stop offset="1" stop-color="#1E2A54"/>
    </linearGradient>
    <linearGradient id="paint4_linear_973_3466" x1="146.72" y1="124.683" x2="164.732" y2="124.683" gradientUnits="userSpaceOnUse">
      <stop offset="0.03" stop-color="#1F2953"/>
      <stop offset="0.51" stop-color="#1D908F"/>
      <stop offset="0.59" stop-color="#1D8588"/>
      <stop offset="0.74" stop-color="#1D6777"/>
      <stop offset="0.94" stop-color="#1D385C"/>
      <stop offset="1" stop-color="#1E2A54"/>
    </linearGradient>
    <linearGradient id="paint5_linear_973_3466" x1="157.479" y1="90.7572" x2="173.708" y2="90.7572" gradientUnits="userSpaceOnUse">
      <stop offset="0.03" stop-color="#1F2953"/>
      <stop offset="0.51" stop-color="#1D908F"/>
      <stop offset="0.59" stop-color="#1D8588"/>
      <stop offset="0.74" stop-color="#1D6777"/>
      <stop offset="0.94" stop-color="#1D385C"/>
      <stop offset="1" stop-color="#1E2A54"/>
    </linearGradient>
    <linearGradient id="paint6_linear_973_3466" x1="134.337" y1="181.449" x2="150.662" y2="181.449" gradientUnits="userSpaceOnUse">
      <stop offset="0.03" stop-color="#1F2953"/>
      <stop offset="0.51" stop-color="#1D908F"/>
      <stop offset="0.59" stop-color="#1D8588"/>
      <stop offset="0.74" stop-color="#1D6777"/>
      <stop offset="0.94" stop-color="#1D385C"/>
      <stop offset="1" stop-color="#1E2A54"/>
    </linearGradient>
    <linearGradient id="paint7_linear_973_3466" x1="182.004" y1="50.0996" x2="197.832" y2="50.0996" gradientUnits="userSpaceOnUse">
      <stop offset="0.03" stop-color="#1F2953"/>
      <stop offset="0.51" stop-color="#1D908F"/>
      <stop offset="0.59" stop-color="#1D8588"/>
      <stop offset="0.74" stop-color="#1D6777"/>
      <stop offset="0.94" stop-color="#1D385C"/>
      <stop offset="1" stop-color="#1E2A54"/>
    </linearGradient>
    <linearGradient id="paint8_linear_973_3466" x1="170.02" y1="71.3866" x2="189.427" y2="71.3866" gradientUnits="userSpaceOnUse">
      <stop offset="0.03" stop-color="#1F2953"/>
      <stop offset="0.51" stop-color="#1D908F"/>
      <stop offset="0.59" stop-color="#1D8588"/>
      <stop offset="0.74" stop-color="#1D6777"/>
      <stop offset="0.94" stop-color="#1D385C"/>
      <stop offset="1" stop-color="#1E2A54"/>
    </linearGradient>
    <linearGradient id="paint9_linear_973_3466" x1="150.735" y1="32.6333" x2="165.29" y2="32.6333" gradientUnits="userSpaceOnUse">
      <stop offset="0.03" stop-color="#1F2953"/>
      <stop offset="0.51" stop-color="#1D908F"/>
      <stop offset="0.59" stop-color="#1D8588"/>
      <stop offset="0.74" stop-color="#1D6777"/>
      <stop offset="0.94" stop-color="#1D385C"/>
      <stop offset="1" stop-color="#1E2A54"/>
    </linearGradient>
    <linearGradient id="paint10_linear_973_3466" x1="152.87" y1="141.931" x2="166.018" y2="141.931" gradientUnits="userSpaceOnUse">
      <stop offset="0.03" stop-color="#1F2953"/>
      <stop offset="0.51" stop-color="#1D908F"/>
      <stop offset="0.59" stop-color="#1D8588"/>
      <stop offset="0.74" stop-color="#1D6777"/>
      <stop offset="0.94" stop-color="#1D385C"/>
      <stop offset="1" stop-color="#1E2A54"/>
    </linearGradient>
    <linearGradient id="paint11_linear_973_3466" x1="153.525" y1="54.5268" x2="168.419" y2="54.5268" gradientUnits="userSpaceOnUse">
      <stop offset="0.03" stop-color="#1F2953"/>
      <stop offset="0.51" stop-color="#1D908F"/>
      <stop offset="0.59" stop-color="#1D8588"/>
      <stop offset="0.74" stop-color="#1D6777"/>
      <stop offset="0.94" stop-color="#1D385C"/>
      <stop offset="1" stop-color="#1E2A54"/>
    </linearGradient>
    <linearGradient id="paint12_linear_973_3466" x1="187.316" y1="65.2613" x2="198.912" y2="65.2613" gradientUnits="userSpaceOnUse">
      <stop offset="0.03" stop-color="#1F2953"/>
      <stop offset="0.51" stop-color="#1D908F"/>
      <stop offset="0.59" stop-color="#1D8588"/>
      <stop offset="0.74" stop-color="#1D6777"/>
      <stop offset="0.94" stop-color="#1D385C"/>
      <stop offset="1" stop-color="#1E2A54"/>
    </linearGradient>
    <linearGradient id="paint13_linear_973_3466" x1="149.995" y1="162.539" x2="170.627" y2="162.539" gradientUnits="userSpaceOnUse">
      <stop offset="0.03" stop-color="#1F2953"/>
      <stop offset="0.51" stop-color="#1D908F"/>
      <stop offset="0.59" stop-color="#1D8588"/>
      <stop offset="0.74" stop-color="#1D6777"/>
      <stop offset="0.94" stop-color="#1D385C"/>
      <stop offset="1" stop-color="#1E2A54"/>
    </linearGradient>
    <linearGradient id="paint14_linear_973_3466" x1="164.429" y1="145.327" x2="184.854" y2="145.327" gradientUnits="userSpaceOnUse">
      <stop offset="0.03" stop-color="#1F2953"/>
      <stop offset="0.51" stop-color="#1D908F"/>
      <stop offset="0.59" stop-color="#1D8588"/>
      <stop offset="0.74" stop-color="#1D6777"/>
      <stop offset="0.94" stop-color="#1D385C"/>
      <stop offset="1" stop-color="#1E2A54"/>
    </linearGradient>
    <linearGradient id="paint15_linear_973_3466" x1="179.311" y1="90.2114" x2="199.385" y2="90.2114" gradientUnits="userSpaceOnUse">
      <stop offset="0.03" stop-color="#1F2953"/>
      <stop offset="0.51" stop-color="#1D908F"/>
      <stop offset="0.59" stop-color="#1D8588"/>
      <stop offset="0.74" stop-color="#1D6777"/>
      <stop offset="0.94" stop-color="#1D385C"/>
      <stop offset="1" stop-color="#1E2A54"/>
    </linearGradient>
    <linearGradient id="paint16_linear_973_3466" x1="175.83" y1="110.358" x2="185.545" y2="110.358" gradientUnits="userSpaceOnUse">
      <stop offset="0.03" stop-color="#1F2953"/>
      <stop offset="0.51" stop-color="#1D908F"/>
      <stop offset="0.59" stop-color="#1D8588"/>
      <stop offset="0.74" stop-color="#1D6777"/>
      <stop offset="0.94" stop-color="#1D385C"/>
      <stop offset="1" stop-color="#1E2A54"/>
    </linearGradient>
    <linearGradient id="paint17_linear_973_3466" x1="139.455" y1="15.7977" x2="150.128" y2="15.7977" gradientUnits="userSpaceOnUse">
      <stop offset="0.03" stop-color="#1F2953"/>
      <stop offset="0.51" stop-color="#1D908F"/>
      <stop offset="0.59" stop-color="#1D8588"/>
      <stop offset="0.74" stop-color="#1D6777"/>
      <stop offset="0.94" stop-color="#1D385C"/>
      <stop offset="1" stop-color="#1E2A54"/>
    </linearGradient>
    <linearGradient id="paint18_linear_973_3466" x1="185.242" y1="107.556" x2="195.977" y2="107.556" gradientUnits="userSpaceOnUse">
      <stop offset="0.03" stop-color="#1F2953"/>
      <stop offset="0.51" stop-color="#1D908F"/>
      <stop offset="0.59" stop-color="#1D8588"/>
      <stop offset="0.74" stop-color="#1D6777"/>
      <stop offset="0.94" stop-color="#1D385C"/>
      <stop offset="1" stop-color="#1E2A54"/>
    </linearGradient>
    <linearGradient id="paint19_linear_973_3466" x1="163.422" y1="177.882" x2="175.042" y2="177.882" gradientUnits="userSpaceOnUse">
      <stop offset="0.03" stop-color="#1F2953"/>
      <stop offset="0.51" stop-color="#1D908F"/>
      <stop offset="0.59" stop-color="#1D8588"/>
      <stop offset="0.74" stop-color="#1D6777"/>
      <stop offset="0.94" stop-color="#1D385C"/>
      <stop offset="1" stop-color="#1E2A54"/>
    </linearGradient>
    <linearGradient id="paint20_linear_973_3466" x1="177.71" y1="121.42" x2="190.203" y2="121.42" gradientUnits="userSpaceOnUse">
      <stop offset="0.03" stop-color="#1F2953"/>
      <stop offset="0.51" stop-color="#1D908F"/>
      <stop offset="0.59" stop-color="#1D8588"/>
      <stop offset="0.74" stop-color="#1D6777"/>
      <stop offset="0.94" stop-color="#1D385C"/>
      <stop offset="1" stop-color="#1E2A54"/>
    </linearGradient>
    <linearGradient id="paint21_linear_973_3466" x1="145.168" y1="136.485" x2="154.131" y2="136.485" gradientUnits="userSpaceOnUse">
      <stop offset="0.03" stop-color="#1F2953"/>
      <stop offset="0.51" stop-color="#1D908F"/>
      <stop offset="0.59" stop-color="#1D8588"/>
      <stop offset="0.74" stop-color="#1D6777"/>
      <stop offset="0.94" stop-color="#1D385C"/>
      <stop offset="1" stop-color="#1E2A54"/>
    </linearGradient>
    <linearGradient id="paint22_linear_973_3466" x1="152.627" y1="72.2963" x2="161.966" y2="72.2963" gradientUnits="userSpaceOnUse">
      <stop offset="0.03" stop-color="#1F2953"/>
      <stop offset="0.51" stop-color="#1D908F"/>
      <stop offset="0.59" stop-color="#1D8588"/>
      <stop offset="0.74" stop-color="#1D6777"/>
      <stop offset="0.94" stop-color="#1D385C"/>
      <stop offset="1" stop-color="#1E2A54"/>
    </linearGradient>
    <linearGradient id="paint23_linear_973_3466" x1="189.014" y1="117.697" x2="196.704" y2="117.697" gradientUnits="userSpaceOnUse">
      <stop offset="0.03" stop-color="#1F2953"/>
      <stop offset="0.51" stop-color="#1D908F"/>
      <stop offset="0.59" stop-color="#1D8588"/>
      <stop offset="0.74" stop-color="#1D6777"/>
      <stop offset="0.94" stop-color="#1D385C"/>
      <stop offset="1" stop-color="#1E2A54"/>
    </linearGradient>
    <linearGradient id="paint24_linear_973_3466" x1="143.094" y1="25.9379" x2="150.82" y2="25.9379" gradientUnits="userSpaceOnUse">
      <stop offset="0.03" stop-color="#1F2953"/>
      <stop offset="0.51" stop-color="#1D908F"/>
      <stop offset="0.59" stop-color="#1D8588"/>
      <stop offset="0.74" stop-color="#1D6777"/>
      <stop offset="0.94" stop-color="#1D385C"/>
      <stop offset="1" stop-color="#1E2A54"/>
    </linearGradient>
    <linearGradient id="paint25_linear_973_3466" x1="100.921" y1="184.457" x2="111.643" y2="184.457" gradientUnits="userSpaceOnUse">
      <stop offset="0.03" stop-color="#1F2953"/>
      <stop offset="0.51" stop-color="#1D908F"/>
      <stop offset="0.59" stop-color="#1D8588"/>
      <stop offset="0.74" stop-color="#1D6777"/>
      <stop offset="0.94" stop-color="#1D385C"/>
      <stop offset="1" stop-color="#1E2A54"/>
    </linearGradient>
    <linearGradient id="paint26_linear_973_3466" x1="180.548" y1="60.4217" x2="188.384" y2="60.4217" gradientUnits="userSpaceOnUse">
      <stop offset="0.03" stop-color="#1F2953"/>
      <stop offset="0.51" stop-color="#1D908F"/>
      <stop offset="0.59" stop-color="#1D8588"/>
      <stop offset="0.74" stop-color="#1D6777"/>
      <stop offset="0.94" stop-color="#1D385C"/>
      <stop offset="1" stop-color="#1E2A54"/>
    </linearGradient>
    <linearGradient id="paint27_linear_973_3466" x1="96.8935" y1="6.6886" x2="103.552" y2="6.6886" gradientUnits="userSpaceOnUse">
      <stop offset="0.03" stop-color="#1F2953"/>
      <stop offset="0.51" stop-color="#1D908F"/>
      <stop offset="0.59" stop-color="#1D8588"/>
      <stop offset="0.74" stop-color="#1D6777"/>
      <stop offset="0.94" stop-color="#1D385C"/>
      <stop offset="1" stop-color="#1E2A54"/>
    </linearGradient>
    <linearGradient id="paint28_linear_973_3466" x1="167.109" y1="130.226" x2="175.042" y2="130.226" gradientUnits="userSpaceOnUse">
      <stop offset="0.03" stop-color="#1F2953"/>
      <stop offset="0.51" stop-color="#1D908F"/>
      <stop offset="0.59" stop-color="#1D8588"/>
      <stop offset="0.74" stop-color="#1D6777"/>
      <stop offset="0.94" stop-color="#1D385C"/>
      <stop offset="1" stop-color="#1E2A54"/>
    </linearGradient>
    <linearGradient id="paint29_linear_973_3466" x1="155.805" y1="81.1265" x2="162.537" y2="81.1265" gradientUnits="userSpaceOnUse">
      <stop offset="0.03" stop-color="#1F2953"/>
      <stop offset="0.51" stop-color="#1D908F"/>
      <stop offset="0.59" stop-color="#1D8588"/>
      <stop offset="0.74" stop-color="#1D6777"/>
      <stop offset="0.94" stop-color="#1D385C"/>
      <stop offset="1" stop-color="#1E2A54"/>
    </linearGradient>
    <linearGradient id="paint30_linear_973_3466" x1="110.321" y1="181.157" x2="116.749" y2="181.157" gradientUnits="userSpaceOnUse">
      <stop offset="0.03" stop-color="#1F2953"/>
      <stop offset="0.51" stop-color="#1D908F"/>
      <stop offset="0.59" stop-color="#1D8588"/>
      <stop offset="0.74" stop-color="#1D6777"/>
      <stop offset="0.94" stop-color="#1D385C"/>
      <stop offset="1" stop-color="#1E2A54"/>
    </linearGradient>
    <linearGradient id="paint31_linear_973_3466" x1="103.395" y1="4.76001" x2="110.794" y2="4.76001" gradientUnits="userSpaceOnUse">
      <stop offset="0.03" stop-color="#1F2953"/>
      <stop offset="0.51" stop-color="#1D908F"/>
      <stop offset="0.59" stop-color="#1D8588"/>
      <stop offset="0.74" stop-color="#1D6777"/>
      <stop offset="0.94" stop-color="#1D385C"/>
      <stop offset="1" stop-color="#1E2A54"/>
    </linearGradient>
    <linearGradient id="paint32_linear_973_3466" x1="153.149" y1="109.073" x2="157.94" y2="109.073" gradientUnits="userSpaceOnUse">
      <stop offset="0.03" stop-color="#1F2953"/>
      <stop offset="0.51" stop-color="#1D908F"/>
      <stop offset="0.59" stop-color="#1D8588"/>
      <stop offset="0.74" stop-color="#1D6777"/>
      <stop offset="0.94" stop-color="#1D385C"/>
      <stop offset="1" stop-color="#1E2A54"/>
    </linearGradient>
    <linearGradient id="paint33_linear_973_3466" x1="153.585" y1="174.304" x2="159.141" y2="174.304" gradientUnits="userSpaceOnUse">
      <stop offset="0.03" stop-color="#1F2953"/>
      <stop offset="0.51" stop-color="#1D908F"/>
      <stop offset="0.59" stop-color="#1D8588"/>
      <stop offset="0.74" stop-color="#1D6777"/>
      <stop offset="0.94" stop-color="#1D385C"/>
      <stop offset="1" stop-color="#1E2A54"/>
    </linearGradient>
    <linearGradient id="paint34_linear_973_3466" x1="177.54" y1="85.299" x2="183.787" y2="85.299" gradientUnits="userSpaceOnUse">
      <stop offset="0.03" stop-color="#1F2953"/>
      <stop offset="0.51" stop-color="#1D908F"/>
      <stop offset="0.59" stop-color="#1D8588"/>
      <stop offset="0.74" stop-color="#1D6777"/>
      <stop offset="0.94" stop-color="#1D385C"/>
      <stop offset="1" stop-color="#1E2A54"/>
    </linearGradient>
    <linearGradient id="paint35_linear_973_3466" x1="164.125" y1="117.648" x2="173.271" y2="117.648" gradientUnits="userSpaceOnUse">
      <stop offset="0.03" stop-color="#1F2953"/>
      <stop offset="0.51" stop-color="#1D908F"/>
      <stop offset="0.59" stop-color="#1D8588"/>
      <stop offset="0.74" stop-color="#1D6777"/>
      <stop offset="0.94" stop-color="#1D385C"/>
      <stop offset="1" stop-color="#1E2A54"/>
    </linearGradient>
    <linearGradient id="paint36_linear_973_3466" x1="121.916" y1="187.052" x2="130.71" y2="187.052" gradientUnits="userSpaceOnUse">
      <stop offset="0.03" stop-color="#1F2953"/>
      <stop offset="0.51" stop-color="#1D908F"/>
      <stop offset="0.59" stop-color="#1D8588"/>
      <stop offset="0.74" stop-color="#1D6777"/>
      <stop offset="0.94" stop-color="#1D385C"/>
      <stop offset="1" stop-color="#1E2A54"/>
    </linearGradient>
    <linearGradient id="paint37_linear_973_3466" x1="168.771" y1="174.11" x2="174.714" y2="174.11" gradientUnits="userSpaceOnUse">
      <stop offset="0.03" stop-color="#1F2953"/>
      <stop offset="0.51" stop-color="#1D908F"/>
      <stop offset="0.59" stop-color="#1D8588"/>
      <stop offset="0.74" stop-color="#1D6777"/>
      <stop offset="0.94" stop-color="#1D385C"/>
      <stop offset="1" stop-color="#1E2A54"/>
    </linearGradient>
    <linearGradient id="paint38_linear_973_3466" x1="184.733" y1="114.361" x2="189.657" y2="114.361" gradientUnits="userSpaceOnUse">
      <stop offset="0.03" stop-color="#1F2953"/>
      <stop offset="0.51" stop-color="#1D908F"/>
      <stop offset="0.59" stop-color="#1D8588"/>
      <stop offset="0.74" stop-color="#1D6777"/>
      <stop offset="0.94" stop-color="#1D385C"/>
      <stop offset="1" stop-color="#1E2A54"/>
    </linearGradient>
    <linearGradient id="paint39_linear_973_3466" x1="138.739" y1="22.4446" x2="143.773" y2="22.4446" gradientUnits="userSpaceOnUse">
      <stop offset="0.03" stop-color="#1F2953"/>
      <stop offset="0.51" stop-color="#1D908F"/>
      <stop offset="0.59" stop-color="#1D8588"/>
      <stop offset="0.74" stop-color="#1D6777"/>
      <stop offset="0.94" stop-color="#1D385C"/>
      <stop offset="1" stop-color="#1E2A54"/>
    </linearGradient>
    <linearGradient id="paint40_linear_973_3466" x1="138.339" y1="111.777" x2="143.033" y2="111.777" gradientUnits="userSpaceOnUse">
      <stop offset="0.03" stop-color="#1F2953"/>
      <stop offset="0.51" stop-color="#1D908F"/>
      <stop offset="0.59" stop-color="#1D8588"/>
      <stop offset="0.74" stop-color="#1D6777"/>
      <stop offset="0.94" stop-color="#1D385C"/>
      <stop offset="1" stop-color="#1E2A54"/>
    </linearGradient>
    <linearGradient id="paint41_linear_973_3466" x1="152.142" y1="78.1427" x2="156.254" y2="78.1427" gradientUnits="userSpaceOnUse">
      <stop offset="0.03" stop-color="#1F2953"/>
      <stop offset="0.51" stop-color="#1D908F"/>
      <stop offset="0.59" stop-color="#1D8588"/>
      <stop offset="0.74" stop-color="#1D6777"/>
      <stop offset="0.94" stop-color="#1D385C"/>
      <stop offset="1" stop-color="#1E2A54"/>
    </linearGradient>
    <linearGradient id="paint42_linear_973_3466" x1="167.789" y1="151.137" x2="170.603" y2="151.137" gradientUnits="userSpaceOnUse">
      <stop offset="0.03" stop-color="#1F2953"/>
      <stop offset="0.51" stop-color="#1D908F"/>
      <stop offset="0.59" stop-color="#1D8588"/>
      <stop offset="0.74" stop-color="#1D6777"/>
      <stop offset="0.94" stop-color="#1D385C"/>
      <stop offset="1" stop-color="#1E2A54"/>
    </linearGradient>
    <linearGradient id="paint43_linear_973_3466" x1="158.109" y1="115.889" x2="161.591" y2="115.889" gradientUnits="userSpaceOnUse">
      <stop offset="0.03" stop-color="#1F2953"/>
      <stop offset="0.51" stop-color="#1D908F"/>
      <stop offset="0.59" stop-color="#1D8588"/>
      <stop offset="0.74" stop-color="#1D6777"/>
      <stop offset="0.94" stop-color="#1D385C"/>
      <stop offset="1" stop-color="#1E2A54"/>
    </linearGradient>
    <linearGradient id="paint44_linear_973_3466" x1="158.862" y1="38.5888" x2="161.554" y2="38.5888" gradientUnits="userSpaceOnUse">
      <stop offset="0.03" stop-color="#1F2953"/>
      <stop offset="0.51" stop-color="#1D908F"/>
      <stop offset="0.59" stop-color="#1D8588"/>
      <stop offset="0.74" stop-color="#1D6777"/>
      <stop offset="0.94" stop-color="#1D385C"/>
      <stop offset="1" stop-color="#1E2A54"/>
    </linearGradient>
    <linearGradient id="paint45_linear_973_3466" x1="142.887" y1="157.905" x2="145.386" y2="157.905" gradientUnits="userSpaceOnUse">
      <stop offset="0.03" stop-color="#1F2953"/>
      <stop offset="0.51" stop-color="#1D908F"/>
      <stop offset="0.59" stop-color="#1D8588"/>
      <stop offset="0.74" stop-color="#1D6777"/>
      <stop offset="0.94" stop-color="#1D385C"/>
      <stop offset="1" stop-color="#1E2A54"/>
    </linearGradient>
    <linearGradient id="paint46_linear_973_3466" x1="168.468" y1="177.87" x2="171.003" y2="177.87" gradientUnits="userSpaceOnUse">
      <stop offset="0.03" stop-color="#1F2953"/>
      <stop offset="0.51" stop-color="#1D908F"/>
      <stop offset="0.59" stop-color="#1D8588"/>
      <stop offset="0.74" stop-color="#1D6777"/>
      <stop offset="0.94" stop-color="#1D385C"/>
      <stop offset="1" stop-color="#1E2A54"/>
    </linearGradient>
    <linearGradient id="paint47_linear_973_3466" x1="130.31" y1="4.90553" x2="133.124" y2="4.90553" gradientUnits="userSpaceOnUse">
      <stop offset="0.03" stop-color="#1F2953"/>
      <stop offset="0.51" stop-color="#1D908F"/>
      <stop offset="0.59" stop-color="#1D8588"/>
      <stop offset="0.74" stop-color="#1D6777"/>
      <stop offset="0.94" stop-color="#1D385C"/>
      <stop offset="1" stop-color="#1E2A54"/>
    </linearGradient>
    <linearGradient id="paint48_linear_973_3466" x1="139.77" y1="98.3866" x2="148.103" y2="98.3866" gradientUnits="userSpaceOnUse">
      <stop offset="0.03" stop-color="#1F2953"/>
      <stop offset="0.51" stop-color="#1D908F"/>
      <stop offset="0.59" stop-color="#1D8588"/>
      <stop offset="0.74" stop-color="#1D6777"/>
      <stop offset="0.94" stop-color="#1D385C"/>
      <stop offset="1" stop-color="#1E2A54"/>
    </linearGradient>
    <linearGradient id="paint49_linear_973_3466" x1="75.4858" y1="173.601" x2="81.5867" y2="173.601" gradientUnits="userSpaceOnUse">
      <stop offset="0.03" stop-color="#1F2953"/>
      <stop offset="0.51" stop-color="#1D908F"/>
      <stop offset="0.59" stop-color="#1D8588"/>
      <stop offset="0.74" stop-color="#1D6777"/>
      <stop offset="0.94" stop-color="#1D385C"/>
      <stop offset="1" stop-color="#1E2A54"/>
    </linearGradient>
    <linearGradient id="paint50_linear_973_3466" x1="77.0504" y1="173.455" x2="79.4398" y2="173.455" gradientUnits="userSpaceOnUse">
      <stop offset="0.03" stop-color="#1F2953"/>
      <stop offset="0.51" stop-color="#1D908F"/>
      <stop offset="0.59" stop-color="#1D8588"/>
      <stop offset="0.74" stop-color="#1D6777"/>
      <stop offset="0.94" stop-color="#1D385C"/>
      <stop offset="1" stop-color="#1E2A54"/>
    </linearGradient>
  </defs>
</svg>