<svg width="64" height="50" viewBox="0 0 64 50" fill="none" xmlns="http://www.w3.org/2000/svg">
<path d="M29.3586 35.4225L29.2722 35.4859C28.9264 35.7395 28.5518 35.8662 28.1542 35.8662C27.549 35.8662 26.9439 35.5493 26.5751 35.0422C26.2178 34.5525 26.1314 33.9475 26.3273 33.3482L26.3619 33.2445C26.8517 31.7291 26.3215 30.0811 25.0306 29.1477L24.9442 29.0843C24.1143 28.4793 24.0394 27.5862 24.2468 26.9466C24.4543 26.307 25.0421 25.6271 26.068 25.6271H26.1775C27.768 25.6271 29.1742 24.6072 29.6641 23.0918L29.6987 22.9881C30.0156 22.0143 30.8455 21.6686 31.5197 21.6686C31.5659 21.6686 31.612 21.6686 31.6638 21.6744V21.1904V19.9285V14.201H31.5543C31.2201 11.7695 30.2346 9.56837 28.6382 7.68419C27.1687 5.94982 24.6848 4.21546 22.4776 5.70782C20.5355 7.02156 21.7227 9.33789 23.3882 10.1791C24.6906 10.836 26.212 10.8475 27.526 11.5044C28.9322 12.2074 29.9926 13.4347 30.6611 14.8291C30.7417 14.9962 30.8743 15.0596 31.0126 15.0538C31.053 15.0653 31.0991 15.0769 31.1567 15.0769H31.2086V18.9086H29.981C29.618 18.9086 29.4912 19.2716 29.5949 19.5309C28.2003 20.9656 26.0046 21.3575 24.218 20.3261C22.0511 19.0757 21.665 15.9412 23.1692 14.0685C24.754 12.0979 28.5057 12.4206 28.8284 15.2728C28.9206 16.0737 28.5691 16.84 27.9928 17.3644C28.304 16.0852 27.3935 14.5583 25.8605 14.9328C24.0624 15.365 23.8377 17.5142 25.2899 18.5053C26.7422 19.4963 28.5518 18.4015 29.301 17.0993C30.2519 15.4341 29.4681 13.5672 28.0159 12.53C26.431 11.4007 24.4024 11.8616 22.9905 13.0025C22.5064 13.3943 22.1376 13.8784 21.8725 14.4142C21.8149 14.2587 21.7515 14.1088 21.6881 13.9706C21.3538 13.2445 20.8351 12.6395 20.5412 11.8905C20.2127 11.0607 20.1897 10.1331 20.3453 9.26299C20.426 8.80203 19.7863 8.45631 19.5442 8.92303C18.4838 10.9801 18.0689 13.2215 18.3167 15.4744C14.2884 13.4116 9.1593 14.9904 4.87163 13.5442C3.52885 13.0947 2.34167 12.2419 1.5579 11.0607C0.555138 9.54532 1.04499 7.592 2.58371 6.67584C4.04175 5.80577 5.82829 6.60093 6.6063 7.95501C6.83105 8.34682 6.94054 8.79626 6.94054 9.25146C5.67845 8.61764 3.88616 8.80779 3.83429 10.5594C3.78819 12.3399 6.08186 12.2304 7.02123 11.4295C8.45046 10.2022 7.76466 7.85129 6.75037 6.65279C5.55167 5.22958 3.36749 5.195 1.86911 6.08811C0.261229 7.05037 -0.170991 9.17079 0.451413 10.8187C1.13721 12.6165 2.91222 13.7458 4.62959 14.3912C8.68098 15.9123 13.6602 14.2702 17.5618 16.0622C17.0316 15.8835 16.4841 15.7395 15.9193 15.63C13.4873 15.1748 10.9401 15.509 8.66944 16.4597C6.70426 17.2837 4.52009 18.8856 4.35296 21.2019C4.20889 23.1783 5.45946 24.9126 7.54567 24.8896C8.3813 24.878 9.13626 24.3018 9.5973 23.645C10.3868 22.5156 10.9228 21.3747 12.0639 20.5277C16.4956 17.2146 21.8782 20.2051 24.6445 24.1463C23.6763 24.5439 22.9214 25.3448 22.5813 26.405C22.08 27.9434 22.6044 29.551 23.9126 30.5018L23.999 30.5652C24.1431 30.6746 24.2757 30.7956 24.3794 30.9339C24.8059 33.0313 23.6936 34.7253 22.0569 35.8086C20.2416 36.7075 18.0343 36.6959 16.1037 35.5839C14.6572 34.7484 14.0521 33.4346 13.2395 32.0748C12.5998 31.0088 11.3838 30.8129 10.2428 30.7726C9.86815 28.3814 10.5367 25.339 12.6171 24.25C11.8967 25.4139 12.0177 27.0273 13.1358 27.9607C14.5477 29.1362 16.7146 28.3007 17.3139 26.7046C18.092 24.6188 15.8617 22.9593 14.0406 22.9593C11.5971 22.9593 10.0468 25.316 9.48203 27.4133C8.23146 32.069 11.4184 36.84 16.0173 37.8368C18.0459 38.2747 20.4721 37.8138 22.3393 36.6729C23.1922 36.2523 23.9702 35.6588 24.6099 34.9443C24.7252 35.3476 24.9096 35.7279 25.1632 36.0794C25.8662 37.0474 26.9843 37.6236 28.1599 37.6236C28.9206 37.6236 29.6641 37.3759 30.3038 36.9091L30.3902 36.8458C30.5977 36.6959 30.8282 36.598 31.0702 36.5404C30.5573 38.3266 29.3183 39.7268 27.5548 40.4009C26.9497 40.6314 26.2985 40.7294 25.6473 40.7236C25.6473 40.7063 25.6473 40.6948 25.6473 40.6775C25.4628 39.5539 24.5926 37.6121 23.0712 38.3497C21.6304 39.0469 22.3796 40.8331 23.6187 41.2652C25.8259 42.0431 28.1081 41.4669 29.762 40.0783L28.1426 42.5963C27.866 43.0284 27.866 43.6334 28.1426 44.0713L31.6581 49.5452V46.307L29.7505 43.3395L31.6581 40.3721V37.5142V37.1281V36.4943V35.9757V34.7369C31.612 34.7369 31.5601 34.7311 31.514 34.7311C30.736 34.7253 29.9868 34.9673 29.3586 35.4225ZM30.5285 19.7787H31.197V19.9285C30.8512 19.9573 30.517 20.0322 30.2058 20.1474C30.321 20.0322 30.4305 19.9054 30.5285 19.7787ZM26.9843 17.5084C26.8863 17.664 26.8978 17.8138 26.9727 17.9291C26.9612 17.9291 26.9555 17.9348 26.9439 17.9406C26.1429 18.1538 25.2208 17.641 25.1689 16.7824C25.0594 15.1863 28.0965 15.751 26.9843 17.5084ZM16.6973 18.2863C14.905 18.2056 13.0897 18.7703 11.6201 19.7729C10.894 20.2684 10.3061 20.9195 9.81052 21.6398C9.11896 22.6481 8.70978 24.0022 7.26327 24.0195C6.83104 24.0253 6.46797 23.8927 6.17982 23.6738C8.11043 19.4214 12.6978 17.2261 17.0834 18.2805C16.9624 18.2921 16.8356 18.2921 16.6973 18.2863ZM5.56319 22.9305C5.25776 22.3428 5.16554 21.6052 5.26928 20.9829C5.49403 19.6 6.64086 18.6032 7.76465 17.9002C9.82204 16.6096 12.352 16.1889 14.7379 16.356C16.5878 16.4828 17.7289 17.1224 17.9421 17.6294C13.1242 16.1486 7.83958 18.2921 5.56319 22.9305ZM19.1178 14.5929C19.1005 14.0397 19.1178 13.4865 19.1869 12.9392C19.2388 12.5301 19.5673 11.781 19.4924 11.4007C19.573 11.7925 19.6883 12.1843 19.867 12.5531C20.1724 13.1984 20.5816 13.7746 20.9274 14.4027C21.227 14.9501 21.4748 15.9296 20.8755 16.3676C19.7286 17.2088 19.1466 15.3995 19.1178 14.5929ZM20.3741 17.3932C20.7256 17.3759 21.083 17.2491 21.3999 17.0014C21.4287 17.445 21.5094 17.8887 21.642 18.3151C21.2386 17.9809 20.8121 17.6755 20.3741 17.3932ZM24.2699 21.2826C25.6415 21.8991 27.284 21.8933 28.6844 21.2422C28.402 21.5879 28.1772 21.9913 28.0331 22.4465L27.9986 22.5502C27.7392 23.3396 27.0073 23.8755 26.1775 23.8755H26.068C25.8951 23.8755 25.7222 23.887 25.5551 23.91C25.2208 22.9766 24.7886 22.095 24.2699 21.2826Z" fill="#178986"/>
<path d="M31.6569 11.3416V8.09762L30.1412 5.7352L31.6569 3.37277V0.134521L28.2625 5.41829C28.1472 5.59691 28.1472 5.88501 28.2625 6.06363L31.6569 11.3416Z" fill="#178986"/>
<path d="M61.4537 6.0815C59.9553 5.18839 57.7711 5.22872 56.5724 6.64618C55.5581 7.85044 54.8781 10.2013 56.3016 11.4229C57.2352 12.2238 59.5346 12.3333 59.4885 10.5528C59.4424 8.80117 57.6443 8.61679 56.3822 9.24485C56.3822 8.79541 56.4917 8.34022 56.7165 7.9484C57.4945 6.59432 59.281 5.79917 60.7391 6.66923C62.2778 7.58539 62.7677 9.53295 61.7649 11.0541C60.9811 12.2353 59.7939 13.0881 58.4512 13.5376C54.1635 14.9838 49.0344 13.405 45.0003 15.4678C45.2481 13.2091 44.8332 10.9735 43.7728 8.91641C43.5307 8.44393 42.8911 8.79541 42.9717 9.25061C43.1216 10.1207 43.1043 11.0426 42.7758 11.8781C42.4761 12.6272 41.9632 13.2322 41.629 13.9582C41.5656 14.0965 41.5022 14.2463 41.4445 14.4019C41.1852 13.8717 40.8164 13.3877 40.3265 12.9902C38.9203 11.8493 36.886 11.3883 35.3012 12.5177C33.8489 13.5491 33.0709 15.4217 34.0218 17.087C34.7652 18.3949 36.5748 19.484 38.0328 18.4929C39.4851 17.5018 39.2604 15.3526 37.4623 14.9204C35.9236 14.5517 35.013 16.0728 35.33 17.352C34.7537 16.8277 34.4021 16.0613 34.4944 15.2604C34.8228 12.4082 38.5688 12.0798 40.1536 14.0561C41.6578 15.923 41.2659 19.0576 39.1048 20.3137C37.3182 21.3451 35.1225 20.959 33.7279 19.5185C33.8316 19.2592 33.7048 18.8962 33.3418 18.8962H32.1142V15.0645H32.1719C32.2237 15.0645 32.2698 15.053 32.3102 15.0414C32.4485 15.0472 32.581 14.9838 32.6617 14.8167C33.3302 13.4166 34.3906 12.1892 35.7968 11.492C37.1108 10.8352 38.6322 10.8236 39.9346 10.1668C41.6001 9.32552 42.7873 7.00919 40.8452 5.69545C38.6322 4.19732 36.1483 5.93169 34.6788 7.66606C33.0824 9.55024 32.097 11.7513 31.7627 14.1829H31.6532V19.9103V21.1722V21.6562C31.6993 21.6505 31.7512 21.6505 31.7973 21.6505C32.4715 21.6505 33.3014 21.9962 33.6184 22.97L33.653 23.0737C34.1428 24.5891 35.5432 25.609 37.1396 25.609H37.2491C38.2749 25.609 38.8627 26.2947 39.0702 26.9285C39.2776 27.5681 39.2027 28.4669 38.3729 29.0662L38.2864 29.1296C36.9955 30.063 36.4653 31.7109 36.9552 33.2264L36.9897 33.3301C37.1857 33.9293 37.0992 34.5343 36.7419 35.0241C36.3731 35.5312 35.768 35.8423 35.1629 35.8423C34.771 35.8423 34.3906 35.7156 34.0448 35.462L33.9584 35.3986C33.3245 34.9377 32.581 34.6957 31.803 34.6957C31.7569 34.6957 31.7051 34.7014 31.659 34.7014V35.9403V36.4589V37.0927V37.4787V40.3367L33.5665 43.3041L31.659 46.2716V49.5098L35.1744 44.0359C35.451 43.6038 35.451 42.9987 35.1744 42.5608L33.555 40.0428C35.209 41.4257 37.4911 42.0077 39.6983 41.2298C40.9374 40.7919 41.6924 39.0057 40.2458 38.3142C38.7244 37.5824 37.8542 39.5185 37.6698 40.6421C37.6698 40.6594 37.6698 40.6709 37.664 40.6882C37.0128 40.6882 36.3616 40.596 35.7565 40.3655C33.993 39.6913 32.7539 38.2912 32.241 36.5049C32.4831 36.5626 32.7194 36.6605 32.9211 36.8103L33.0075 36.8737C33.653 37.3404 34.3906 37.5882 35.1513 37.5882C36.327 37.5882 37.445 37.012 38.1481 36.044C38.4017 35.6925 38.5861 35.3122 38.7014 34.9089C39.3411 35.6234 40.1191 36.2111 40.972 36.6375C42.845 37.7784 45.2654 38.2451 47.294 37.8014C51.8871 36.8103 55.0798 32.0394 53.8292 27.3779C53.2645 25.2805 51.7142 22.9239 49.2707 22.9239C47.4496 22.9239 45.2193 24.5833 45.9973 26.6692C46.5909 28.2595 48.7636 29.1008 50.1697 27.9253C51.2878 26.9919 51.4145 25.3785 50.6884 24.2146C52.7688 25.3036 53.4373 28.3459 53.0628 30.7372C51.9217 30.7833 50.7057 30.9734 50.066 32.0394C49.2477 33.3992 48.6483 34.7187 47.2018 35.5485C45.2712 36.6548 43.0639 36.6721 41.2486 35.7732C39.6119 34.6899 38.5054 33.0016 38.9261 30.8985C39.0356 30.7602 39.1624 30.6335 39.3065 30.5297L39.3929 30.4664C40.7011 29.5156 41.2255 27.908 40.7242 26.3696C40.3784 25.3094 39.6234 24.5084 38.661 24.1109C41.4273 20.1696 46.8099 17.1791 51.2474 20.4923C52.3827 21.3393 52.9187 22.486 53.7082 23.6096C54.1692 24.2664 54.9242 24.8484 55.7599 24.8542C57.8403 24.8772 59.0966 23.1371 58.9525 21.1665C58.7854 18.8501 56.6012 17.2483 54.6361 16.4243C52.3654 15.4736 49.8182 15.1336 47.3862 15.5946C46.8272 15.6983 46.2797 15.8481 45.7437 16.0267C49.6395 14.2348 54.6245 15.8712 58.6759 14.3558C60.3933 13.7104 62.1741 12.5811 62.8541 10.7833C63.4938 9.16418 63.0616 7.04376 61.4537 6.0815ZM38.1539 16.7816C38.0962 17.6401 37.1799 18.1529 36.3789 17.9397C36.3673 17.9397 36.3616 17.934 36.35 17.9282C36.425 17.813 36.4365 17.6632 36.3385 17.5076C35.2205 15.7502 38.2576 15.1855 38.1539 16.7816ZM32.1142 19.9276V19.7778H32.7827C32.8865 19.9103 32.9902 20.0313 33.1055 20.1466C32.7943 20.0313 32.46 19.9564 32.1142 19.9276ZM37.762 23.9092C37.5949 23.8861 37.422 23.8746 37.2491 23.8746H37.1396C36.3097 23.8746 35.5778 23.3445 35.3185 22.5493L35.2839 22.4456C35.134 21.9904 34.9151 21.5871 34.6327 21.2414C36.0331 21.8925 37.6755 21.8982 39.0471 21.2817C38.5285 22.0941 38.0962 22.9757 37.762 23.9092ZM41.6751 18.3143C41.8076 17.8879 41.8883 17.4442 41.9171 17.0005C42.2283 17.2483 42.5856 17.3751 42.9429 17.3923C42.5049 17.6747 42.0785 17.9801 41.6751 18.3143ZM44.1993 14.592C44.1704 15.3987 43.5884 17.208 42.4415 16.3667C41.8422 15.9288 42.09 14.9492 42.3897 14.4019C42.7355 13.7796 43.1389 13.1976 43.4501 12.5522C43.6287 12.1835 43.744 11.7917 43.8247 11.3998C43.7497 11.7801 44.0782 12.5292 44.1301 12.9383C44.1935 13.4857 44.2165 14.0388 44.1993 14.592ZM56.0538 24.0187C54.6072 24.0014 54.1981 22.6473 53.5065 21.6389C53.0109 20.9187 52.4231 20.2676 51.6969 19.772C50.2274 18.7695 48.4062 18.2106 46.6197 18.2855C46.4814 18.2912 46.3546 18.2912 46.2394 18.2855C50.6192 17.231 55.2124 19.4263 57.143 23.6787C56.8433 23.8919 56.486 24.0244 56.0538 24.0187ZM48.5791 16.3494C50.9708 16.1823 53.495 16.6087 55.5581 17.8936C56.6762 18.5966 57.823 19.5934 58.0477 20.9763C58.1515 21.6044 58.0535 22.3361 57.7538 22.9239C55.4775 18.2854 50.1928 16.142 45.3749 17.6171C45.5881 17.1158 46.7292 16.4819 48.5791 16.3494Z" fill="#178986"/>
<path d="M35.053 6.05827C35.1682 5.87965 35.1682 5.59154 35.053 5.41292L31.6586 0.12915V3.36741L33.1742 5.72983L31.6586 8.09226V11.3305L35.053 6.05827Z" fill="#178986"/>
<path d="M31.7669 31.4113C31.8879 31.4228 32.0147 31.4631 32.1184 31.5381L33.4324 32.4888C33.9972 32.8979 34.7579 32.3447 34.5447 31.6821L34.0433 30.1436C33.9453 29.844 34.0548 29.5213 34.3084 29.337L35.6224 28.3862C36.1871 27.9771 35.899 27.0782 35.1959 27.0782H33.5765C33.2653 27.0782 32.9887 26.8766 32.8907 26.577L32.3893 25.0385C32.274 24.6928 31.9686 24.5314 31.6689 24.543C31.3693 24.5257 31.0581 24.6928 30.9486 25.0385L30.4357 26.5827C30.3377 26.8823 30.0611 27.084 29.7499 27.084H28.1305C27.4331 27.084 27.1392 27.9771 27.704 28.392L29.0122 29.3427C29.2658 29.5271 29.3695 29.8555 29.2773 30.1494L28.7759 31.6879C28.5569 32.3563 29.3234 32.9094 29.8882 32.4945L31.1964 31.5438C31.3001 31.4689 31.4211 31.4286 31.5479 31.417V31.4228C31.5825 31.417 31.6228 31.4113 31.6574 31.4113C31.692 31.4113 31.7323 31.417 31.7669 31.4228V31.4113Z" fill="#178986"/>
</svg>
