<svg width="67" height="36" viewBox="0 0 67 36" fill="none" xmlns="http://www.w3.org/2000/svg">
<path d="M0.441271 17.3632C4.91376 13.3711 8.31397 8.58904 10.656 3.07344C10.9805 2.3117 11.6719 2.21295 12.2503 2.49508C12.3491 2.52329 12.4619 2.56561 12.5607 2.63614C14.9592 4.01856 16.4547 6.54362 16.5111 9.29436C18.9661 11.368 21.9148 12.5247 25.1457 12.6658C25.315 12.6658 25.4702 12.7081 25.6113 12.7645C26.2321 12.8351 26.8106 13.2724 26.8106 14.0905V16.8554C26.8106 18.6469 24.0453 18.6469 24.0453 16.8554V15.346C20.3347 14.9651 16.9768 13.4698 14.1832 10.9448C13.8023 10.6063 13.7035 10.1972 13.76 9.83039C13.76 9.77396 13.7459 9.71755 13.7459 9.66112C13.7882 8.25048 13.2943 6.9527 12.3631 5.97935C9.97875 11.0718 6.62086 15.5717 2.40233 19.3381C1.0761 20.5089 -0.884956 18.5481 0.441271 17.3632Z" fill="#178986"/>
<path d="M0.441271 18.7878C4.91376 22.78 8.31397 27.562 10.656 33.0917C10.9805 33.8535 11.6719 33.9522 12.2503 33.6701C12.3491 33.6419 12.4619 33.5995 12.5607 33.529C14.9592 32.1466 16.4547 29.6215 16.5111 26.8708C18.9661 24.7972 21.9148 23.6404 25.1457 23.5135C25.315 23.5135 25.4702 23.4712 25.6113 23.4147C26.2321 23.3442 26.8106 22.9069 26.8106 22.0887V19.3239C26.8106 17.5324 24.0453 17.5324 24.0453 19.3239V20.8333C20.3347 21.2141 16.9768 22.7094 14.1832 25.2344C13.8023 25.573 13.7035 25.9821 13.76 26.3489C13.76 26.4053 13.7459 26.4617 13.7459 26.5181C13.7882 27.9288 13.2943 29.2266 12.3631 30.1999C9.97875 25.1075 6.62086 20.6076 2.40233 16.8412C1.0761 15.6421 -0.884956 17.5888 0.441271 18.7878Z" fill="#178986"/>
<path d="M66.138 17.3632C61.6655 13.3711 58.2653 8.58904 55.9233 3.07344C55.5988 2.3117 54.9074 2.21295 54.329 2.49508C54.2302 2.52329 54.1173 2.56561 54.0185 2.63614C51.62 4.01856 50.1104 6.54362 50.0681 9.29436C47.6132 11.368 44.6503 12.5247 41.4335 12.6658C41.2642 12.6658 41.109 12.7081 40.9679 12.7645C40.3471 12.8351 39.7687 13.2724 39.7687 14.0905V16.8554C39.7687 18.6469 42.534 18.6469 42.534 16.8554V15.346C46.2446 14.9651 49.5884 13.4698 52.3961 10.9448C52.777 10.6063 52.8757 10.1972 52.8052 9.83039C52.8052 9.77396 52.8193 9.71755 52.8193 9.66112C52.777 8.25048 53.2708 6.9527 54.202 5.97935C56.5863 11.0718 59.9442 15.5717 64.1628 19.3381C65.5031 20.5089 67.4643 18.5481 66.138 17.3632Z" fill="#178986"/>
<path d="M66.138 18.7878C61.6655 22.78 58.2653 27.562 55.9233 33.0917C55.5988 33.8535 54.9074 33.9522 54.329 33.6701C54.2302 33.6419 54.1173 33.5995 54.0185 33.529C51.62 32.1466 50.1104 29.6215 50.0681 26.8708C47.6132 24.7972 44.6503 23.6404 41.4335 23.5135C41.2642 23.5135 41.109 23.4712 40.9679 23.4147C40.3471 23.3442 39.7687 22.9069 39.7687 22.0887V19.3239C39.7687 17.5324 42.534 17.5324 42.534 19.3239V20.8333C46.2446 21.2141 49.5884 22.7094 52.3961 25.2344C52.777 25.573 52.8757 25.9821 52.8052 26.3489C52.8052 26.4053 52.8193 26.4617 52.8193 26.5181C52.777 27.9288 53.2708 29.2266 54.202 30.1999C56.5863 25.1075 59.9442 20.6076 64.1628 16.8412C65.5031 15.6421 67.4643 17.5888 66.138 18.7878Z" fill="#178986"/>
<path d="M33.2826 9.67505L14.278 18.0683L33.2826 26.4617L52.2871 18.0683L33.2826 9.67505Z" fill="#178986"/>
<path d="M12.5992 6.19079C9.57988 6.31774 8.42299 2.84759 10.9626 1.30999C13.9113 -0.481521 19.3291 0.703415 22.1791 2.11405C25.664 3.82093 28.3728 6.51524 30.0659 10.0136C30.1787 10.2393 30.1787 10.4509 30.1364 10.6484C30.2775 11.5794 28.7255 11.9462 28.3164 10.9305C27.1595 8.06694 23.4347 6.82558 20.6412 6.30364C17.8759 5.79581 15.3645 6.06383 12.5992 6.19079Z" fill="#178986"/>
<path d="M53.9801 6.19079C56.9994 6.31774 58.1705 2.84759 55.6168 1.30999C52.6681 -0.481521 47.2503 0.703415 44.4003 2.11405C40.9154 3.82093 38.2065 6.51524 36.5134 10.0136C36.4006 10.2393 36.4006 10.4509 36.4429 10.6484C36.3018 11.5794 37.8538 11.9462 38.2629 10.9305C39.4198 8.06694 43.1446 6.82558 45.9381 6.30364C48.7034 5.79581 51.2148 6.06383 53.9801 6.19079Z" fill="#178986"/>
<path d="M12.5992 29.9462C9.57988 29.8192 8.42299 33.2894 10.9626 34.827C13.9113 36.6185 19.3291 35.4336 22.1791 34.0229C25.664 32.316 28.3728 29.6217 30.0659 26.1233C30.1787 25.8976 30.1787 25.686 30.1364 25.4886C30.2775 24.5575 28.7255 24.1908 28.3164 25.2064C27.1595 28.07 23.4347 29.3114 20.6412 29.8333C17.8759 30.3411 15.3645 30.0731 12.5992 29.9462Z" fill="#178986"/>
<path d="M53.9801 29.9462C56.9994 29.8192 58.1705 33.2894 55.6168 34.827C52.6681 36.6185 47.2503 35.4336 44.4003 34.0229C40.9154 32.316 38.2065 29.6217 36.5134 26.1233C36.4006 25.8976 36.4006 25.686 36.4429 25.4886C36.3018 24.5575 37.8538 24.1908 38.2629 25.2064C39.4198 28.07 43.1446 29.3114 45.9381 29.8333C48.7034 30.3411 51.2148 30.0731 53.9801 29.9462Z" fill="#178986"/>
</svg>
